<?xml version="1.0" encoding="iso-8859-1"?>
<!-- Uploaded to: SVG Repo, www.svgrepo.com, Generator: SVG Repo Mixer Tools -->
<svg fill="#000000" height="800px" width="800px" version="1.1" id="Layer_1" xmlns="http://www.w3.org/2000/svg" xmlns:xlink="http://www.w3.org/1999/xlink" 
	 viewBox="0 0 503.607 503.607" xml:space="preserve">
<g>
	<g>
		<g>
			<path d="M394.492,369.311c-13.883,0-25.18,11.298-25.18,25.18s11.298,25.18,25.18,25.18s25.18-11.298,25.18-25.18
				S408.375,369.311,394.492,369.311z"/>
			<path d="M496.791,376.555l-12.12-2.325c-5.682-1.091-10.156-4.809-12.271-10.206c-2.124-5.38-1.368-11.155,2.056-15.822
				l7.621-10.374c2.451-3.341,2.098-7.974-0.839-10.903l-16.443-16.434c-2.845-2.845-7.319-3.257-10.643-1.016l-10.206,6.916
				c-4.793,3.265-10.592,3.785-15.906,1.469c-5.305-2.308-8.855-6.925-9.736-12.657l-1.956-12.708
				c-0.638-4.096-4.163-7.118-8.301-7.118h-23.241c-4.029,0-7.487,2.862-8.251,6.815l-3.005,15.654
				c-1.066,5.556-4.684,9.988-9.913,12.154c-5.246,2.182-10.92,1.586-15.612-1.586l-13.195-8.939
				c-3.341-2.241-7.797-1.83-10.643,1.016l-16.443,16.434c-2.938,2.929-3.29,7.563-0.839,10.903l7.621,10.374
				c3.425,4.667,4.18,10.441,2.056,15.822c-2.115,5.397-6.589,9.115-12.271,10.206l-12.12,2.325
				c-3.953,0.764-6.815,4.222-6.815,8.251v23.241c0,4.138,3.022,7.663,7.118,8.301l12.708,1.956
				c5.733,0.881,10.349,4.432,12.657,9.736c2.317,5.313,1.779,11.105-1.469,15.906l-6.916,10.206
				c-2.249,3.332-1.83,7.797,1.016,10.643l16.434,16.443c2.921,2.921,7.554,3.282,10.903,0.839l10.374-7.621
				c4.658-3.424,10.441-4.18,15.822-2.056c5.397,2.115,9.115,6.589,10.206,12.271l2.325,12.12c0.764,3.953,4.222,6.815,8.251,6.815
				h23.241c4.138,0,7.663-3.022,8.301-7.118l1.377-8.939c0.881-5.775,4.625-10.542,10.013-12.783
				c5.397-2.224,11.423-1.502,16.124,1.956l7.294,5.355c3.357,2.451,7.982,2.09,10.903-0.839l16.434-16.443
				c2.845-2.845,3.265-7.311,1.016-10.643l-6.916-10.206c-3.248-4.801-3.785-10.593-1.469-15.906
				c2.308-5.305,6.925-8.855,12.657-9.736l12.708-1.956c4.096-0.638,7.118-4.163,7.118-8.301v-23.241
				C503.607,380.777,500.744,377.319,496.791,376.555z M394.492,436.459c-23.141,0-41.967-18.826-41.967-41.967
				s18.826-41.967,41.967-41.967c23.141,0,41.967,18.826,41.967,41.967S417.633,436.459,394.492,436.459z"/>
			<path d="M209.836,41.967c-9.258,0-16.787,7.529-16.787,16.787c0,9.258,7.529,16.787,16.787,16.787
				c9.258,0,16.787-7.529,16.787-16.787C226.623,49.496,219.094,41.967,209.836,41.967z"/>
			<path d="M134.295,41.967c-9.258,0-16.787,7.529-16.787,16.787c0,9.258,7.529,16.787,16.787,16.787
				c9.258,0,16.787-7.529,16.787-16.787C151.082,49.496,143.553,41.967,134.295,41.967z"/>
			<path d="M58.754,41.967c-9.258,0-16.787,7.529-16.787,16.787c0,9.258,7.529,16.787,16.787,16.787
				c9.258,0,16.787-7.529,16.787-16.787C75.541,49.496,68.012,41.967,58.754,41.967z"/>
			<path d="M479.501,0H24.106C10.811,0,0,10.811,0,24.106v76.615h503.607V24.106C503.607,10.811,492.796,0,479.501,0z
				 M58.754,92.328c-18.516,0-33.574-15.058-33.574-33.574S40.238,25.18,58.754,25.18s33.574,15.058,33.574,33.574
				S77.27,92.328,58.754,92.328z M134.295,92.328c-18.516,0-33.574-15.058-33.574-33.574s15.058-33.574,33.574-33.574
				s33.574,15.058,33.574,33.574S152.811,92.328,134.295,92.328z M209.836,92.328c-18.516,0-33.574-15.058-33.574-33.574
				S191.32,25.18,209.836,25.18s33.574,15.058,33.574,33.574S228.352,92.328,209.836,92.328z"/>
			<path d="M0,476.848c0,14.756,12.003,26.758,26.75,26.758h334.361c-0.411-1.175-0.797-2.375-1.041-3.634l-2.325-12.137
				l-9.98,7.772c-4.398,3.198-9.527,4.868-14.898,4.868c-6.74,0-13.052-2.619-17.811-7.369l-16.443-16.443
				c-8.519-8.519-9.795-21.94-3.038-31.929l6.916-10.206l-12.557-1.595c-12.372-1.905-21.345-12.38-21.345-24.887v-23.241
				c0-12.053,8.586-22.444,20.421-24.735l12.137-2.325l-7.772-9.98c-7.42-10.122-6.354-23.879,2.518-32.726l16.426-16.426
				c4.751-4.742,11.071-7.361,17.802-7.361c5.036,0,9.904,1.486,14.084,4.297l13.228,8.956l2.635-15.478
				c2.291-11.852,12.683-20.438,24.736-20.438h23.241c12.506,0,22.981,8.973,24.887,21.345l1.956,12.716l9.846-7.076
				c4.188-2.829,9.065-4.323,14.118-4.323c6.74,0,13.06,2.619,17.811,7.37l16.443,16.426c8.855,8.838,9.921,22.595,2.51,32.709
				l-7.621,10.383l11.961,1.93c1.267,0.243,2.468,0.63,3.651,1.049V117.508H0V476.848z M176.262,444.852h-16.787
				c-4.642,0-8.393-3.752-8.393-8.393c0-4.642,3.752-8.393,8.393-8.393h16.787c4.642,0,8.393,3.752,8.393,8.393
				C184.656,441.101,180.904,444.852,176.262,444.852z M159.475,226.623h16.787c4.642,0,8.393,3.752,8.393,8.393
				c0,4.642-3.752,8.393-8.393,8.393h-16.787c-4.642,0-8.393-3.752-8.393-8.393C151.082,230.375,154.834,226.623,159.475,226.623z
				 M92.328,209.836c-4.642,0-8.393-3.752-8.393-8.393c0-4.642,3.752-8.393,8.393-8.393h117.508c4.642,0,8.393,3.752,8.393,8.393
				c0,4.642-3.752,8.393-8.393,8.393H92.328z M209.836,293.77c4.642,0,8.393,3.752,8.393,8.393c0,4.642-3.752,8.393-8.393,8.393
				H92.328c-4.642,0-8.393-3.752-8.393-8.393c0-4.642,3.752-8.393,8.393-8.393H209.836z M193.049,360.918h41.967
				c4.642,0,8.393,3.752,8.393,8.393c0,4.642-3.752,8.393-8.393,8.393h-41.967c-4.642,0-8.393-3.752-8.393-8.393
				C184.656,364.67,188.408,360.918,193.049,360.918z M159.475,327.344h16.787c4.642,0,8.393,3.752,8.393,8.393
				c0,4.642-3.752,8.393-8.393,8.393h-16.787c-4.642,0-8.393-3.752-8.393-8.393C151.082,331.096,154.834,327.344,159.475,327.344z
				 M209.836,394.492c4.642,0,8.393,3.752,8.393,8.393c0,4.642-3.752,8.393-8.393,8.393H92.328c-4.642,0-8.393-3.752-8.393-8.393
				c0-4.642,3.752-8.393,8.393-8.393H209.836z M251.803,444.852h-41.967c-4.642,0-8.393-3.752-8.393-8.393
				c0-4.642,3.752-8.393,8.393-8.393h41.967c4.642,0,8.393,3.752,8.393,8.393C260.197,441.101,256.445,444.852,251.803,444.852z
				 M268.59,344.131h-58.754c-4.642,0-8.393-3.752-8.393-8.393c0-4.642,3.752-8.393,8.393-8.393h58.754
				c4.642,0,8.393,3.752,8.393,8.393C276.984,340.379,273.232,344.131,268.59,344.131z M276.984,310.557H243.41
				c-4.642,0-8.393-3.752-8.393-8.393c0-4.642,3.752-8.393,8.393-8.393h33.574c4.642,0,8.393,3.752,8.393,8.393
				C285.377,306.806,281.625,310.557,276.984,310.557z M276.984,276.984h-83.934c-4.642,0-8.393-3.752-8.393-8.393
				c0-4.642,3.752-8.393,8.393-8.393h83.934c4.642,0,8.393,3.752,8.393,8.393C285.377,273.232,281.625,276.984,276.984,276.984z
				 M327.344,243.41H209.836c-4.642,0-8.393-3.752-8.393-8.393c0-4.642,3.752-8.393,8.393-8.393h117.508
				c4.642,0,8.393,3.752,8.393,8.393C335.738,239.658,331.986,243.41,327.344,243.41z M377.705,201.443
				c0,4.642-3.752,8.393-8.393,8.393H243.41c-4.642,0-8.393-3.752-8.393-8.393c0-4.642,3.752-8.393,8.393-8.393h125.902
				C373.953,193.049,377.705,196.801,377.705,201.443z M310.557,159.475h16.787c4.642,0,8.393,3.752,8.393,8.393
				c0,4.642-3.752,8.393-8.393,8.393h-16.787c-4.642,0-8.393-3.752-8.393-8.393C302.164,163.227,305.916,159.475,310.557,159.475z
				 M193.049,159.475h83.934c4.642,0,8.393,3.752,8.393,8.393c0,4.642-3.752,8.393-8.393,8.393h-83.934
				c-4.642,0-8.393-3.752-8.393-8.393C184.656,163.227,188.408,159.475,193.049,159.475z M50.361,159.475h109.115
				c4.642,0,8.393,3.752,8.393,8.393c0,4.642-3.752,8.393-8.393,8.393H50.361c-4.642,0-8.393-3.752-8.393-8.393
				C41.967,163.227,45.719,159.475,50.361,159.475z M50.361,193.049h8.393c4.642,0,8.393,3.752,8.393,8.393
				c0,4.642-3.752,8.393-8.393,8.393h-8.393c-4.642,0-8.393-3.752-8.393-8.393C41.967,196.801,45.719,193.049,50.361,193.049z
				 M50.361,226.623h75.541c4.642,0,8.393,3.752,8.393,8.393c0,4.642-3.752,8.393-8.393,8.393H50.361
				c-4.642,0-8.393-3.752-8.393-8.393C41.967,230.375,45.719,226.623,50.361,226.623z M50.361,260.197h109.115
				c4.642,0,8.393,3.752,8.393,8.393c0,4.642-3.752,8.393-8.393,8.393H50.361c-4.642,0-8.393-3.752-8.393-8.393
				C41.967,263.949,45.719,260.197,50.361,260.197z M50.361,293.77h8.393c4.642,0,8.393,3.752,8.393,8.393
				c0,4.642-3.752,8.393-8.393,8.393h-8.393c-4.642,0-8.393-3.752-8.393-8.393C41.967,297.522,45.719,293.77,50.361,293.77z
				 M50.361,327.344h75.541c4.642,0,8.393,3.752,8.393,8.393c0,4.642-3.752,8.393-8.393,8.393H50.361
				c-4.642,0-8.393-3.752-8.393-8.393C41.967,331.096,45.719,327.344,50.361,327.344z M50.361,360.918h109.115
				c4.642,0,8.393,3.752,8.393,8.393c0,4.642-3.752,8.393-8.393,8.393H50.361c-4.642,0-8.393-3.752-8.393-8.393
				C41.967,364.67,45.719,360.918,50.361,360.918z M50.361,394.492h8.393c4.642,0,8.393,3.752,8.393,8.393
				c0,4.642-3.752,8.393-8.393,8.393h-8.393c-4.642,0-8.393-3.752-8.393-8.393C41.967,398.244,45.719,394.492,50.361,394.492z
				 M50.361,428.066h75.541c4.642,0,8.393,3.752,8.393,8.393c0,4.642-3.752,8.393-8.393,8.393H50.361
				c-4.642,0-8.393-3.752-8.393-8.393C41.967,431.817,45.719,428.066,50.361,428.066z"/>
		</g>
	</g>
</g>
</svg>