<?xml version="1.0" encoding="iso-8859-1"?>
<!-- Uploaded to: SVG Repo, www.svgrepo.com, Generator: SVG Repo Mixer Tools -->
<svg fill="#000000" height="800px" width="800px" version="1.1" id="Layer_1" xmlns="http://www.w3.org/2000/svg" xmlns:xlink="http://www.w3.org/1999/xlink" 
	 viewBox="0 0 503.924 503.924" xml:space="preserve">
<g>
	<g>
		<g>
			<path d="M503.541,369.775c-3.341-34.321-28.966-59.191-61.029-59.191c-20.102,0-36.99,12.154-47.7,26.96
				c-10.71-14.806-27.598-26.96-47.708-26.96c-32.055,0-57.671,24.87-61.012,59.191c-0.361,2.258-1.217,10.248,1.88,22.738
				c4.583,18.44,15.117,35.185,30.477,48.422l70.723,60.634c1.838,1.553,4.088,2.325,6.362,2.325c2.3,0,4.633-0.797,6.564-2.434
				l69.095-60.525c15.36-13.253,25.885-29.99,30.46-48.422C504.758,380.024,503.894,372.033,503.541,369.775z"/>
			<path d="M134.295,41.997c-9.258,0-16.787,7.529-16.787,16.787c0,9.258,7.529,16.787,16.787,16.787
				c9.258,0,16.787-7.529,16.787-16.787C151.082,49.526,143.553,41.997,134.295,41.997z"/>
			<path d="M58.754,41.997c-9.258,0-16.787,7.529-16.787,16.787c0,9.258,7.529,16.787,16.787,16.787
				c9.258,0,16.787-7.529,16.787-16.787C75.541,49.526,68.012,41.997,58.754,41.997z"/>
			<path d="M209.836,41.997c-9.258,0-16.787,7.529-16.787,16.787c0,9.258,7.529,16.787,16.787,16.787
				c9.258,0,16.787-7.529,16.787-16.787C226.623,49.526,219.094,41.997,209.836,41.997z"/>
			<path d="M503.607,24.136c0-13.295-10.811-24.106-24.106-24.106H24.106C10.811,0.03,0,10.841,0,24.136v76.615h503.607V24.136z
				 M58.754,92.358c-18.516,0-33.574-15.058-33.574-33.574S40.238,25.21,58.754,25.21s33.574,15.058,33.574,33.574
				S77.27,92.358,58.754,92.358z M134.295,92.358c-18.516,0-33.574-15.058-33.574-33.574s15.058-33.574,33.574-33.574
				s33.574,15.058,33.574,33.574S152.811,92.358,134.295,92.358z M209.836,92.358c-18.516,0-33.574-15.058-33.574-33.574
				S191.32,25.21,209.836,25.21s33.574,15.058,33.574,33.574S228.352,92.358,209.836,92.358z"/>
			<path d="M271.679,396.561c-3.601-14.512-2.854-24.677-2.249-28.865c4.381-42.849,36.982-73.896,77.673-73.896
				c17.223,0,33.893,6.715,47.708,18.868c13.824-12.154,30.485-18.868,47.708-18.868c24.97,0,46.861,11.717,61.087,30.653V117.538H0
				v357.393c0,15.83,12.876,28.706,28.706,28.706h337.089l-58.267-49.958C289.49,438.142,277.118,418.409,271.679,396.561z
				 M276.984,310.587H243.41c-4.642,0-8.393-3.752-8.393-8.393c0-4.642,3.752-8.393,8.393-8.393h33.574
				c4.642,0,8.393,3.752,8.393,8.393C285.377,306.835,281.625,310.587,276.984,310.587z M276.984,277.014h-83.934
				c-4.642,0-8.393-3.752-8.393-8.393c0-4.642,3.752-8.393,8.393-8.393h83.934c4.642,0,8.393,3.752,8.393,8.393
				C285.377,273.262,281.625,277.014,276.984,277.014z M209.836,394.522c4.642,0,8.393,3.752,8.393,8.393
				c0,4.642-3.752,8.393-8.393,8.393H92.328c-4.642,0-8.393-3.752-8.393-8.393c0-4.642,3.752-8.393,8.393-8.393H209.836z
				 M176.262,344.161h-16.787c-4.642,0-8.393-3.752-8.393-8.393c0-4.642,3.752-8.393,8.393-8.393h16.787
				c4.642,0,8.393,3.752,8.393,8.393C184.656,340.409,180.904,344.161,176.262,344.161z M193.049,377.735
				c-4.642,0-8.393-3.752-8.393-8.393c0-4.642,3.752-8.393,8.393-8.393h41.967c4.642,0,8.393,3.752,8.393,8.393
				c0,4.642-3.752,8.393-8.393,8.393H193.049z M92.328,310.587c-4.642,0-8.393-3.752-8.393-8.393c0-4.642,3.752-8.393,8.393-8.393
				h117.508c4.642,0,8.393,3.752,8.393,8.393c0,4.642-3.752,8.393-8.393,8.393H92.328z M159.475,226.653h16.787
				c4.642,0,8.393,3.752,8.393,8.393c0,4.642-3.752,8.393-8.393,8.393h-16.787c-4.642,0-8.393-3.752-8.393-8.393
				C151.082,230.405,154.834,226.653,159.475,226.653z M92.328,209.866c-4.642,0-8.393-3.752-8.393-8.393
				c0-4.642,3.752-8.393,8.393-8.393h117.508c4.642,0,8.393,3.752,8.393,8.393c0,4.642-3.752,8.393-8.393,8.393H92.328z
				 M327.344,243.44H209.836c-4.642,0-8.393-3.752-8.393-8.393c0-4.642,3.752-8.393,8.393-8.393h117.508
				c4.642,0,8.393,3.752,8.393,8.393C335.738,239.688,331.986,243.44,327.344,243.44z M377.705,201.473
				c0,4.642-3.752,8.393-8.393,8.393H243.41c-4.642,0-8.393-3.752-8.393-8.393c0-4.642,3.752-8.393,8.393-8.393h125.902
				C373.953,193.079,377.705,196.831,377.705,201.473z M310.557,159.505h16.787c4.642,0,8.393,3.752,8.393,8.393
				c0,4.642-3.752,8.393-8.393,8.393h-16.787c-4.642,0-8.393-3.752-8.393-8.393C302.164,163.257,305.916,159.505,310.557,159.505z
				 M193.049,159.505h83.934c4.642,0,8.393,3.752,8.393,8.393c0,4.642-3.752,8.393-8.393,8.393h-83.934
				c-4.642,0-8.393-3.752-8.393-8.393C184.656,163.257,188.408,159.505,193.049,159.505z M50.361,159.505h109.115
				c4.642,0,8.393,3.752,8.393,8.393c0,4.642-3.752,8.393-8.393,8.393H50.361c-4.642,0-8.393-3.752-8.393-8.393
				C41.967,163.257,45.719,159.505,50.361,159.505z M50.361,193.079h8.393c4.642,0,8.393,3.752,8.393,8.393
				c0,4.642-3.752,8.393-8.393,8.393h-8.393c-4.642,0-8.393-3.752-8.393-8.393C41.967,196.831,45.719,193.079,50.361,193.079z
				 M50.361,226.653h75.541c4.642,0,8.393,3.752,8.393,8.393c0,4.642-3.752,8.393-8.393,8.393H50.361
				c-4.642,0-8.393-3.752-8.393-8.393C41.967,230.405,45.719,226.653,50.361,226.653z M50.361,260.227h109.115
				c4.642,0,8.393,3.752,8.393,8.393c0,4.642-3.752,8.393-8.393,8.393H50.361c-4.642,0-8.393-3.752-8.393-8.393
				C41.967,263.979,45.719,260.227,50.361,260.227z M50.361,293.8h8.393c4.642,0,8.393,3.752,8.393,8.393
				c0,4.642-3.752,8.393-8.393,8.393h-8.393c-4.642,0-8.393-3.752-8.393-8.393C41.967,297.552,45.719,293.8,50.361,293.8z
				 M50.361,327.374h75.541c4.642,0,8.393,3.752,8.393,8.393c0,4.642-3.752,8.393-8.393,8.393H50.361
				c-4.642,0-8.393-3.752-8.393-8.393C41.967,331.126,45.719,327.374,50.361,327.374z M50.361,360.948h109.115
				c4.642,0,8.393,3.752,8.393,8.393c0,4.642-3.752,8.393-8.393,8.393H50.361c-4.642,0-8.393-3.752-8.393-8.393
				C41.967,364.7,45.719,360.948,50.361,360.948z M50.361,394.522h8.393c4.642,0,8.393,3.752,8.393,8.393
				c0,4.642-3.752,8.393-8.393,8.393h-8.393c-4.642,0-8.393-3.752-8.393-8.393C41.967,398.274,45.719,394.522,50.361,394.522z
				 M125.902,444.882H50.361c-4.642,0-8.393-3.752-8.393-8.393c0-4.642,3.752-8.393,8.393-8.393h75.541
				c4.642,0,8.393,3.752,8.393,8.393C134.295,441.131,130.543,444.882,125.902,444.882z M176.262,444.882h-16.787
				c-4.642,0-8.393-3.752-8.393-8.393c0-4.642,3.752-8.393,8.393-8.393h16.787c4.642,0,8.393,3.752,8.393,8.393
				C184.656,441.131,180.904,444.882,176.262,444.882z M251.803,444.882h-41.967c-4.642,0-8.393-3.752-8.393-8.393
				c0-4.642,3.752-8.393,8.393-8.393h41.967c4.642,0,8.393,3.752,8.393,8.393C260.197,441.131,256.445,444.882,251.803,444.882z
				 M209.836,344.161c-4.642,0-8.393-3.752-8.393-8.393c0-4.642,3.752-8.393,8.393-8.393h58.754c4.642,0,8.393,3.752,8.393,8.393
				c0,4.642-3.752,8.393-8.393,8.393H209.836z"/>
		</g>
	</g>
</g>
</svg>