<?xml version="1.0" encoding="iso-8859-1"?>
<!-- Uploaded to: SVG Repo, www.svgrepo.com, Generator: SVG Repo Mixer Tools -->
<svg fill="#000000" height="800px" width="800px" version="1.1" id="Layer_1" xmlns="http://www.w3.org/2000/svg" xmlns:xlink="http://www.w3.org/1999/xlink" 
	 viewBox="0 0 503.609 503.609" xml:space="preserve">
<g>
	<g>
		<g>
			<path d="M134.295,41.968c-9.258,0-16.787,7.529-16.787,16.787c0,9.258,7.529,16.787,16.787,16.787
				c9.258,0,16.787-7.529,16.787-16.787C151.082,49.497,143.553,41.968,134.295,41.968z"/>
			<path d="M58.754,41.968c-9.258,0-16.787,7.529-16.787,16.787c0,9.258,7.529,16.787,16.787,16.787
				c9.258,0,16.787-7.529,16.787-16.787C75.541,49.497,68.012,41.968,58.754,41.968z"/>
			<path d="M209.836,41.968c-9.258,0-16.787,7.529-16.787,16.787c0,9.258,7.529,16.787,16.787,16.787
				c9.258,0,16.787-7.529,16.787-16.787C226.623,49.497,219.094,41.968,209.836,41.968z"/>
			<path d="M503.607,24.107c0-13.287-10.819-24.106-24.106-24.106H24.106C10.819,0.001,0,10.82,0,24.107v76.615h503.607V24.107z
				 M58.754,92.329c-18.516,0-33.574-15.058-33.574-33.574s15.058-33.574,33.574-33.574s33.574,15.058,33.574,33.574
				S77.27,92.329,58.754,92.329z M134.295,92.329c-18.516,0-33.574-15.058-33.574-33.574s15.058-33.574,33.574-33.574
				s33.574,15.058,33.574,33.574S152.811,92.329,134.295,92.329z M209.836,92.329c-18.516,0-33.574-15.058-33.574-33.574
				s15.058-33.574,33.574-33.574s33.574,15.058,33.574,33.574S228.352,92.329,209.836,92.329z"/>
			<path d="M0.003,117.509v359.348c0,14.747,11.994,26.75,26.75,26.75h107.545h235.016h107.537c14.756,0,26.758-12.003,26.758-26.75
				V117.509H0.003z M201.672,159.477c0-4.633,3.752-8.393,8.393-8.393c4.633,0,8.393,3.76,8.393,8.393v50.361
				c0,4.633-3.76,8.393-8.393,8.393c-4.642,0-8.393-3.76-8.393-8.393V159.477z M120.188,170.329c3.282-3.282,8.595-3.282,11.877,0
				l41.967,41.967c3.273,3.282,3.273,8.586,0,11.868c-1.645,1.637-3.794,2.459-5.934,2.459c-2.149,0-4.297-0.823-5.943-2.459
				l-41.967-41.967C116.915,178.916,116.915,173.611,120.188,170.329z M117.737,251.805h50.361c4.633,0,8.393,3.76,8.393,8.393
				c0,4.633-3.76,8.393-8.393,8.393h-50.361c-4.642,0-8.393-3.76-8.393-8.393C109.344,255.565,113.096,251.805,117.737,251.805z
				 M266.243,370.815l-65.284,65.284c-11.457,11.457-26.498,17.181-41.548,17.181c-15.041,0-30.09-5.724-41.539-17.181
				c-22.914-22.906-22.914-60.181,0-83.087l65.284-65.293c22.906-22.906,60.181-22.906,83.087,0c3.282,3.282,3.282,8.595,0,11.868
				c-3.273,3.282-8.587,3.282-11.868,0c-16.359-16.359-42.991-16.359-59.35,0l-65.284,65.293c-16.367,16.359-16.367,42.983,0,59.35
				c16.359,16.359,42.991,16.359,59.35,0l65.284-65.284c3.282-3.282,8.595-3.282,11.868,0
				C269.524,362.22,269.524,367.533,266.243,370.815z M302.393,444.854c0,4.633-3.76,8.393-8.393,8.393
				c-4.642,0-8.393-3.76-8.393-8.393v-50.361c0-4.633,3.752-8.393,8.393-8.393c4.633,0,8.393,3.76,8.393,8.393V444.854z
				 M270.741,341.95c-15.041,0-30.09-5.724-41.548-17.181c-3.273-3.273-3.273-8.586,0-11.868c3.282-3.273,8.595-3.273,11.868,0
				c16.367,16.367,42.991,16.367,59.358,0l65.276-65.284c16.367-16.359,16.367-42.983,0-59.35
				c-7.881-7.881-18.424-12.229-29.671-12.229c-11.247,0-21.789,4.348-29.679,12.229l-65.284,65.284
				c-3.273,3.282-8.586,3.282-11.868,0c-3.273-3.282-3.273-8.586,0-11.868l65.284-65.284c11.063-11.054,25.81-17.148,41.548-17.148
				c15.729,0,30.485,6.094,41.547,17.148c11.054,11.054,17.148,25.81,17.148,41.548c0,15.729-6.094,30.485-17.148,41.548
				l-65.284,65.276C300.832,336.226,285.782,341.95,270.741,341.95z M383.868,442.394c-1.645,1.637-3.794,2.459-5.934,2.459
				c-2.149,0-4.297-0.823-5.943-2.459l-41.967-41.967c-3.273-3.282-3.273-8.586,0-11.868c3.282-3.282,8.595-3.282,11.877,0
				l41.967,41.967C387.142,433.808,387.142,439.113,383.868,442.394z M394.721,360.919H344.36c-4.642,0-8.393-3.76-8.393-8.393
				s3.752-8.393,8.393-8.393h50.361c4.642,0,8.393,3.76,8.393,8.393S399.362,360.919,394.721,360.919z"/>
		</g>
	</g>
</g>
</svg>