<?xml version="1.0" encoding="iso-8859-1"?>
<!-- Uploaded to: SVG Repo, www.svgrepo.com, Generator: SVG Repo Mixer Tools -->
<svg fill="#000000" height="800px" width="800px" version="1.1" id="Layer_1" xmlns="http://www.w3.org/2000/svg" xmlns:xlink="http://www.w3.org/1999/xlink" 
	 viewBox="0 0 503.607 503.607" xml:space="preserve">
<g>
	<g>
		<g>
			<path d="M402.885,302.164c-55.539,0-100.721,45.182-100.721,100.721c0,55.539,45.182,100.721,100.721,100.721
				c55.539,0,100.721-45.182,100.721-100.721C503.607,347.346,458.425,302.164,402.885,302.164z M453.246,411.279h-50.361
				c-4.642,0-8.393-3.752-8.393-8.393v-50.361c0-4.642,3.752-8.393,8.393-8.393c4.642,0,8.393,3.752,8.393,8.393v41.967h41.967
				c4.642,0,8.393,3.752,8.393,8.393C461.639,407.527,457.887,411.279,453.246,411.279z"/>
			<path d="M58.754,41.967c-9.258,0-16.787,7.529-16.787,16.787c0,9.258,7.529,16.787,16.787,16.787
				c9.258,0,16.787-7.529,16.787-16.787C75.541,49.496,68.012,41.967,58.754,41.967z"/>
			<path d="M134.295,41.967c-9.258,0-16.787,7.529-16.787,16.787c0,9.258,7.529,16.787,16.787,16.787
				c9.258,0,16.787-7.529,16.787-16.787C151.082,49.496,143.553,41.967,134.295,41.967z"/>
			<path d="M209.836,41.967c-9.258,0-16.787,7.529-16.787,16.787c0,9.258,7.529,16.787,16.787,16.787
				c9.258,0,16.787-7.529,16.787-16.787C226.623,49.496,219.094,41.967,209.836,41.967z"/>
			<path d="M479.501,0H24.106C10.811,0,0,10.811,0,24.106v76.615h503.607V24.106C503.607,10.811,492.796,0,479.501,0z
				 M58.754,92.328c-18.516,0-33.574-15.058-33.574-33.574S40.238,25.18,58.754,25.18s33.574,15.058,33.574,33.574
				S77.27,92.328,58.754,92.328z M134.295,92.328c-18.516,0-33.574-15.058-33.574-33.574s15.058-33.574,33.574-33.574
				s33.574,15.058,33.574,33.574S152.811,92.328,134.295,92.328z M209.836,92.328c-18.516,0-33.574-15.058-33.574-33.574
				S191.32,25.18,209.836,25.18s33.574,15.058,33.574,33.574S228.352,92.328,209.836,92.328z"/>
			<path d="M0,473.449c0,16.636,13.522,30.158,30.158,30.158h312.513c-34.254-20.556-57.294-57.948-57.294-100.721
				c0-64.797,52.711-117.508,117.508-117.508c42.773,0,80.166,23.04,100.721,57.294V117.508H0V473.449z M176.262,444.852h-16.787
				c-4.642,0-8.393-3.752-8.393-8.393c0-4.642,3.752-8.393,8.393-8.393h16.787c4.642,0,8.393,3.752,8.393,8.393
				C184.656,441.101,180.904,444.852,176.262,444.852z M159.475,226.623h16.787c4.642,0,8.393,3.752,8.393,8.393
				c0,4.642-3.752,8.393-8.393,8.393h-16.787c-4.642,0-8.393-3.752-8.393-8.393C151.082,230.375,154.834,226.623,159.475,226.623z
				 M92.328,209.836c-4.642,0-8.393-3.752-8.393-8.393c0-4.642,3.752-8.393,8.393-8.393h117.508c4.642,0,8.393,3.752,8.393,8.393
				c0,4.642-3.752,8.393-8.393,8.393H92.328z M209.836,293.77c4.642,0,8.393,3.752,8.393,8.393c0,4.642-3.752,8.393-8.393,8.393
				H92.328c-4.642,0-8.393-3.752-8.393-8.393c0-4.642,3.752-8.393,8.393-8.393H209.836z M159.475,327.344h16.787
				c4.642,0,8.393,3.752,8.393,8.393c0,4.642-3.752,8.393-8.393,8.393h-16.787c-4.642,0-8.393-3.752-8.393-8.393
				C151.082,331.096,154.834,327.344,159.475,327.344z M209.836,394.492c4.642,0,8.393,3.752,8.393,8.393
				c0,4.642-3.752,8.393-8.393,8.393H92.328c-4.642,0-8.393-3.752-8.393-8.393c0-4.642,3.752-8.393,8.393-8.393H209.836z
				 M226.623,444.852h-16.787c-4.642,0-8.393-3.752-8.393-8.393c0-4.642,3.752-8.393,8.393-8.393h16.787
				c4.642,0,8.393,3.752,8.393,8.393C235.016,441.101,231.265,444.852,226.623,444.852z M235.016,377.705h-41.967
				c-4.642,0-8.393-3.752-8.393-8.393c0-4.642,3.752-8.393,8.393-8.393h41.967c4.642,0,8.393,3.752,8.393,8.393
				C243.41,373.953,239.658,377.705,235.016,377.705z M268.59,344.131h-58.754c-4.642,0-8.393-3.752-8.393-8.393
				c0-4.642,3.752-8.393,8.393-8.393h58.754c4.642,0,8.393,3.752,8.393,8.393C276.984,340.379,273.232,344.131,268.59,344.131z
				 M276.984,310.557H243.41c-4.642,0-8.393-3.752-8.393-8.393c0-4.642,3.752-8.393,8.393-8.393h33.574
				c4.642,0,8.393,3.752,8.393,8.393C285.377,306.806,281.625,310.557,276.984,310.557z M276.984,276.984h-83.934
				c-4.642,0-8.393-3.752-8.393-8.393c0-4.642,3.752-8.393,8.393-8.393h83.934c4.642,0,8.393,3.752,8.393,8.393
				C285.377,273.232,281.625,276.984,276.984,276.984z M327.344,243.41H209.836c-4.642,0-8.393-3.752-8.393-8.393
				c0-4.642,3.752-8.393,8.393-8.393h117.508c4.642,0,8.393,3.752,8.393,8.393C335.738,239.658,331.986,243.41,327.344,243.41z
				 M377.705,201.443c0,4.642-3.752,8.393-8.393,8.393H243.41c-4.642,0-8.393-3.752-8.393-8.393c0-4.642,3.752-8.393,8.393-8.393
				h125.902C373.953,193.049,377.705,196.801,377.705,201.443z M310.557,159.475h16.787c4.642,0,8.393,3.752,8.393,8.393
				c0,4.642-3.752,8.393-8.393,8.393h-16.787c-4.642,0-8.393-3.752-8.393-8.393C302.164,163.227,305.916,159.475,310.557,159.475z
				 M193.049,159.475h83.934c4.642,0,8.393,3.752,8.393,8.393c0,4.642-3.752,8.393-8.393,8.393h-83.934
				c-4.642,0-8.393-3.752-8.393-8.393C184.656,163.227,188.408,159.475,193.049,159.475z M50.361,159.475h109.115
				c4.642,0,8.393,3.752,8.393,8.393c0,4.642-3.752,8.393-8.393,8.393H50.361c-4.642,0-8.393-3.752-8.393-8.393
				C41.967,163.227,45.719,159.475,50.361,159.475z M50.361,193.049h8.393c4.642,0,8.393,3.752,8.393,8.393
				c0,4.642-3.752,8.393-8.393,8.393h-8.393c-4.642,0-8.393-3.752-8.393-8.393C41.967,196.801,45.719,193.049,50.361,193.049z
				 M50.361,226.623h75.541c4.642,0,8.393,3.752,8.393,8.393c0,4.642-3.752,8.393-8.393,8.393H50.361
				c-4.642,0-8.393-3.752-8.393-8.393C41.967,230.375,45.719,226.623,50.361,226.623z M50.361,260.197h109.115
				c4.642,0,8.393,3.752,8.393,8.393c0,4.642-3.752,8.393-8.393,8.393H50.361c-4.642,0-8.393-3.752-8.393-8.393
				C41.967,263.949,45.719,260.197,50.361,260.197z M50.361,293.77h8.393c4.642,0,8.393,3.752,8.393,8.393
				c0,4.642-3.752,8.393-8.393,8.393h-8.393c-4.642,0-8.393-3.752-8.393-8.393C41.967,297.522,45.719,293.77,50.361,293.77z
				 M50.361,327.344h75.541c4.642,0,8.393,3.752,8.393,8.393c0,4.642-3.752,8.393-8.393,8.393H50.361
				c-4.642,0-8.393-3.752-8.393-8.393C41.967,331.096,45.719,327.344,50.361,327.344z M50.361,360.918h109.115
				c4.642,0,8.393,3.752,8.393,8.393c0,4.642-3.752,8.393-8.393,8.393H50.361c-4.642,0-8.393-3.752-8.393-8.393
				C41.967,364.67,45.719,360.918,50.361,360.918z M50.361,394.492h8.393c4.642,0,8.393,3.752,8.393,8.393
				c0,4.642-3.752,8.393-8.393,8.393h-8.393c-4.642,0-8.393-3.752-8.393-8.393C41.967,398.244,45.719,394.492,50.361,394.492z
				 M50.361,428.066h75.541c4.642,0,8.393,3.752,8.393,8.393c0,4.642-3.752,8.393-8.393,8.393H50.361
				c-4.642,0-8.393-3.752-8.393-8.393C41.967,431.817,45.719,428.066,50.361,428.066z"/>
		</g>
	</g>
</g>
</svg>