<?xml version="1.0" encoding="iso-8859-1"?>
<!-- Uploaded to: SVG Repo, www.svgrepo.com, Generator: SVG Repo Mixer Tools -->
<svg fill="#000000" height="800px" width="800px" version="1.1" id="Layer_1" xmlns="http://www.w3.org/2000/svg" xmlns:xlink="http://www.w3.org/1999/xlink" 
	 viewBox="0 0 503.607 503.607" xml:space="preserve">
<g>
	<g>
		<g>
			<path d="M134.295,41.967c-9.258,0-16.787,7.529-16.787,16.787c0,9.258,7.529,16.787,16.787,16.787
				c9.258,0,16.787-7.529,16.787-16.787C151.082,49.496,143.553,41.967,134.295,41.967z"/>
			<path d="M58.754,41.967c-9.258,0-16.787,7.529-16.787,16.787c0,9.258,7.529,16.787,16.787,16.787
				c9.258,0,16.787-7.529,16.787-16.787C75.541,49.496,68.012,41.967,58.754,41.967z"/>
			<path d="M209.836,41.967c-9.258,0-16.787,7.529-16.787,16.787c0,9.258,7.529,16.787,16.787,16.787
				c9.258,0,16.787-7.529,16.787-16.787C226.623,49.496,219.094,41.967,209.836,41.967z"/>
			<path d="M479.501,0H24.106C10.819,0,0,10.819,0,24.106v76.615h503.607V24.106C503.607,10.819,492.787,0,479.501,0z
				 M58.754,92.328c-18.516,0-33.574-15.058-33.574-33.574S40.238,25.18,58.754,25.18s33.574,15.058,33.574,33.574
				S77.27,92.328,58.754,92.328z M134.295,92.328c-18.516,0-33.574-15.058-33.574-33.574s15.058-33.574,33.574-33.574
				s33.574,15.058,33.574,33.574S152.811,92.328,134.295,92.328z M209.836,92.328c-18.516,0-33.574-15.058-33.574-33.574
				S191.32,25.18,209.836,25.18s33.574,15.058,33.574,33.574S228.352,92.328,209.836,92.328z"/>
			<path d="M83.934,327.344c13.883,0,25.18-11.298,25.18-25.18s-11.298-25.18-25.18-25.18s-25.18,11.298-25.18,25.18
				S70.052,327.344,83.934,327.344z"/>
			<path d="M302.164,243.41c13.883,0,25.18-11.298,25.18-25.18s-11.298-25.18-25.18-25.18s-25.18,11.298-25.18,25.18
				S288.281,243.41,302.164,243.41z"/>
			<path d="M226.623,402.885c13.883,0,25.18-11.298,25.18-25.18c0-13.883-11.298-25.18-25.18-25.18
				c-13.883,0-25.18,11.298-25.18,25.18C201.443,391.588,212.74,402.885,226.623,402.885z"/>
			<path d="M419.672,327.344c13.883,0,25.18-11.298,25.18-25.18s-11.298-25.18-25.18-25.18s-25.18,11.298-25.18,25.18
				S405.789,327.344,419.672,327.344z"/>
			<path d="M0,476.857c0,14.747,12.003,26.75,26.75,26.75h450.098c14.756,0,26.758-12.003,26.758-26.75V117.508H0V476.857z
				 M83.934,260.197c23.141,0,41.967,18.826,41.967,41.967c0,3.811-0.672,7.428-1.628,10.945l69.607,38.669
				c7.697-9.694,19.431-16.04,32.743-16.04c3.718,0,7.252,0.638,10.685,1.553l39.39-85.94c-9.963-7.68-16.502-19.599-16.502-33.12
				c0-23.141,18.826-41.967,41.967-41.967c23.141,0,41.967,18.826,41.967,41.967c0,6.471-1.595,12.523-4.214,18.004
				c0.151,0.084,0.327,0.092,0.478,0.193L390.757,270c0.42,0.285,0.68,0.697,1.032,1.041c7.428-6.664,17.139-10.844,27.883-10.844
				c23.141,0,41.967,18.826,41.967,41.967s-18.826,41.967-41.967,41.967c-23.141,0-41.967-18.826-41.967-41.967
				c0-6.455,1.586-12.506,4.205-17.979c-0.151-0.084-0.319-0.117-0.47-0.218l-50.361-33.574c-0.42-0.285-0.68-0.697-1.032-1.041
				c-7.428,6.664-17.139,10.844-27.883,10.844c-3.609,0-7.05-0.596-10.391-1.46l-39.432,86.05
				c9.812,7.697,16.25,19.515,16.25,32.919c0,23.141-18.826,41.967-41.967,41.967c-23.141,0-41.967-18.826-41.967-41.967
				c0-3.811,0.671-7.428,1.628-10.945l-69.607-38.669c-7.697,9.694-19.431,16.04-32.743,16.04
				c-23.141,0-41.967-18.826-41.967-41.967S60.794,260.197,83.934,260.197z"/>
		</g>
	</g>
</g>
</svg>