<?xml version="1.0" encoding="iso-8859-1"?>
<!-- Uploaded to: SVG Repo, www.svgrepo.com, Generator: SVG Repo Mixer Tools -->
<svg height="800px" width="800px" version="1.1" id="Layer_1" xmlns="http://www.w3.org/2000/svg" xmlns:xlink="http://www.w3.org/1999/xlink" 
	 viewBox="0 0 392.598 392.598" xml:space="preserve">
<g>
	<path style="fill:#FFFFFF;" d="M21.818,95.095v22.044h46.028c6.012,0,10.925,4.848,10.925,10.925
		c0,6.012-4.848,10.925-10.925,10.925H21.818v18.101h17.648c6.012,0,10.925,4.848,10.925,10.925c0,6.012-4.848,10.925-10.925,10.925
		H21.818v42.214h28.057c6.012,0,10.925,4.848,10.925,10.925v22.303c4.073,1.422,8.016,2.909,11.895,4.719l16.743-16.097
		c4.267-4.073,10.925-4.073,15.127,0l39.24,37.818c4.202,3.879,4.719,11.313,0,15.709l-16.291,15.774
		c1.681,3.556,3.232,7.111,4.655,10.796h23.661c6.012,0,10.925,4.848,10.925,10.925v36.913h193.164
		c6.012,0,10.925-4.848,10.925-10.925V95.095H21.818z M248.016,264.857c-25.212,0-45.64-20.493-45.64-45.64
		s20.493-45.64,45.64-45.64s45.64,20.493,45.64,45.64C293.657,244.299,273.164,264.857,248.016,264.857z"/>
	<path style="fill:#FFFFFF;" d="M22.141,333.188c-0.065,0-0.129,0-0.323,0v26.634c0,6.012,4.848,10.925,10.925,10.925h14.739
		c1.293-3.232,2.004-6.659,2.004-10.214C49.487,345.471,37.204,333.188,22.141,333.188z"/>
</g>
<path style="fill:#FFC10D;" d="M359.919,21.786H32.743c-6.012,0-10.925,4.848-10.925,10.925v40.663H370.78V32.711
	C370.78,26.699,365.867,21.786,359.919,21.786z"/>
<path style="fill:#56ACE0;" d="M113.681,336.808c-2.069-7.499-5.172-14.61-9.115-21.269c-2.651-4.331-1.875-9.891,1.745-13.446
	l14.158-13.576l-23.467-22.691l-14.739,14.222c-3.491,3.297-8.663,4.008-12.8,1.681c-6.982-3.814-14.481-6.788-22.238-8.857
	c-4.784-1.228-8.145-5.56-8.145-10.602v-19.459H21.818v68.59c0.065,0,0.129,0,0.323,0c27.152,0,49.131,22.109,49.131,49.131
	c0,3.491-0.388,6.853-1.099,10.214h74.731V344.76h-20.687C119.37,344.695,115.038,341.463,113.681,336.808z"/>
<path style="fill:#194F82;" d="M359.919,0H32.743C14.707,0,0.032,14.675,0.032,32.711v327.111c0,18.101,14.675,32.776,32.711,32.776
	h327.111c18.036,0,32.711-14.675,32.711-32.711V32.711C392.566,14.675,377.891,0,359.919,0z M47.483,370.747H32.743
	c-6.012,0-10.925-4.848-10.925-10.925v-26.634c0.065,0,0.129,0,0.323,0c15.063,0,27.345,12.283,27.345,27.345
	C49.487,364.089,48.776,367.515,47.483,370.747z M144.84,370.747H70.174c0.711-3.297,1.099-6.723,1.099-10.214
	c0-27.152-22.109-49.131-49.131-49.131c-0.065,0-0.129,0-0.323,0v-68.525H38.95v19.459c0,4.913,3.297,9.244,8.145,10.602
	c7.887,2.069,15.386,5.042,22.238,8.857c4.202,2.327,9.438,1.616,12.8-1.681l14.739-14.222l23.596,22.626l-14.093,13.576
	c-3.62,3.491-4.396,9.115-1.745,13.446c3.943,6.659,7.046,13.77,9.115,21.269c1.293,4.719,5.624,7.952,10.537,7.952h20.687v25.988
	L144.84,370.747L144.84,370.747z M370.78,359.822c0,6.012-4.848,10.925-10.925,10.925H166.691v-36.913
	c0-6.012-4.848-10.925-10.925-10.925h-23.661c-1.293-3.685-2.844-7.37-4.655-10.796l16.291-15.709
	c4.719-4.461,4.202-11.895,0-15.709l-39.24-37.818c-4.267-4.073-10.925-4.073-15.127,0L72.63,258.844
	c-3.879-1.745-7.822-3.426-11.895-4.719v-22.238c0-6.012-4.848-10.925-10.925-10.925H21.818v-42.214h17.648
	c6.012,0,10.925-4.848,10.925-10.925c0-6.012-4.848-10.925-10.925-10.925H21.818v-18.101h46.028c6.012,0,10.925-4.848,10.925-10.925
	c0-6.012-4.848-10.925-10.925-10.925H21.818V94.901H370.78V359.822L370.78,359.822z M370.78,73.309H21.818V32.711
	c0-6.012,4.848-10.925,10.925-10.925h327.111c6.012,0,10.925,4.848,10.925,10.925v40.663l0,0V73.309z"/>
<path style="fill:#FFC10D;" d="M308.655,203.507c-1.422-4.913-3.426-9.632-6.012-13.964c-2.586-4.331-1.875-9.891,1.745-13.446
	l7.37-7.111l-11.636-11.184l-7.952,7.758c-3.491,3.297-8.663,4.008-12.8,1.681c-4.59-2.521-9.568-4.461-14.739-5.883
	c-4.784-1.228-8.145-5.56-8.145-10.602v-10.279h-16.873v10.279c0,4.913-3.297,9.244-8.145,10.602
	c-5.172,1.422-10.214,3.297-14.739,5.883c-4.202,2.327-9.438,1.616-12.8-1.681l-7.952-7.628l-11.636,11.184l7.434,7.111
	c3.62,3.556,4.396,9.115,1.745,13.446c-2.651,4.331-4.655,9.05-6.012,13.964c-1.293,4.719-5.624,7.952-10.537,7.952h-11.119v15.451
	h11.119c4.848,0,9.18,3.232,10.537,7.952c1.422,4.913,3.426,9.632,6.012,13.964c2.65,4.331,1.875,9.891-1.745,13.446l-7.434,7.111
	l11.636,11.184l7.952-7.628c3.491-3.297,8.663-4.008,12.8-1.681c4.59,2.521,9.568,4.461,14.739,5.883
	c4.784,1.228,8.145,5.56,8.145,10.602v10.279h16.937v-10.279c0-4.913,3.297-9.244,8.145-10.602
	c5.172-1.422,10.214-3.297,14.739-5.883c4.202-2.327,9.438-1.616,12.8,1.681l7.952,7.628l11.636-11.184l-7.434-7.111
	c-3.62-3.491-4.396-9.115-1.745-13.446c2.651-4.331,4.655-9.051,6.012-13.964c1.293-4.719,5.624-7.952,10.537-7.952h11.119v-15.451
	h-11.119C314.214,211.459,309.947,208.226,308.655,203.507z"/>
<path style="fill:#194F82;" d="M341.107,189.608h-14.222c-0.453-1.164-1.034-2.392-1.487-3.556l9.632-9.244
	c7.758-8.21,0-15.709,0-15.709l-27.345-26.376c-4.267-4.073-10.925-4.073-15.127,0l-10.02,9.632
	c-1.422-0.646-2.844-1.164-4.331-1.681v-13.188c0-6.012-4.848-10.925-10.925-10.925h-38.723c-6.012,0-10.925,4.848-10.925,10.925
	v13.188c-1.487,0.517-2.844,1.099-4.331,1.681l-10.02-9.632c-4.267-4.073-10.925-4.073-15.127,0l-27.345,26.376
	c-4.073,4.396-4.784,10.408,0,15.709l9.632,9.244c-0.517,1.164-1.034,2.327-1.487,3.556h-14.222
	c-6.012,0-10.925,4.848-10.925,10.925v37.236c0,6.012,4.848,10.925,10.925,10.925h14.222c0.453,1.164,1.034,2.392,1.487,3.556
	l-9.632,9.244c-4.719,4.719-4.008,11.636,0,15.709l27.345,26.376c4.267,4.073,10.925,4.073,15.127,0l10.02-9.632
	c1.422,0.646,2.844,1.164,4.331,1.681v13.123c0,6.012,4.848,10.925,10.925,10.925h38.723c6.012,0,10.925-4.848,10.925-10.925
	v-13.188c1.487-0.517,2.844-1.099,4.331-1.681l10.02,9.632c4.267,4.073,10.925,4.073,15.127,0l27.345-26.376
	c4.396-3.814,4.655-10.925,0-15.709l-9.632-9.244c0.517-1.164,1.034-2.327,1.487-3.556h14.222c6.012,0,10.925-4.848,10.925-10.925
	v-37.236C352.097,194.586,347.119,189.608,341.107,189.608z M330.246,226.844h-11.055c-4.848,0-9.18,3.232-10.537,7.952
	c-1.422,4.913-3.426,9.632-6.012,13.964c-2.586,4.331-1.875,9.891,1.745,13.446l7.434,7.111l-11.636,11.184l-7.952-7.628
	c-3.491-3.297-8.663-4.008-12.8-1.681c-4.59,2.521-9.568,4.461-14.739,5.883c-4.784,1.228-8.145,5.56-8.145,10.602v10.279h-16.937
	v-10.279c0-4.978-3.297-9.244-8.145-10.602c-5.172-1.422-10.214-3.297-14.739-5.883c-4.202-2.327-9.374-1.616-12.8,1.681
	l-7.952,7.628l-11.636-11.184l7.434-7.111c3.62-3.491,4.396-9.115,1.745-13.446c-2.65-4.331-4.655-9.051-6.012-13.964
	c-1.293-4.719-5.624-7.952-10.537-7.952h-11.119v-15.451h11.119c4.848,0,9.18-3.232,10.537-7.952
	c1.422-4.913,3.426-9.632,6.012-13.964c2.65-4.331,1.875-9.891-1.745-13.446l-7.434-7.111l11.636-11.184l7.952,7.628
	c3.491,3.297,8.663,4.008,12.8,1.681c4.59-2.521,9.568-4.461,14.739-5.883c4.784-1.228,8.145-5.56,8.145-10.602v-10.279h16.937
	v10.279c0,4.913,3.297,9.244,8.145,10.602c5.172,1.422,10.214,3.297,14.739,5.883c4.202,2.327,9.438,1.616,12.8-1.681l7.952-7.758
	l11.636,11.184l-7.37,7.111c-3.62,3.491-4.396,9.051-1.745,13.446c2.651,4.396,4.655,9.115,6.012,13.964
	c1.293,4.719,5.624,7.952,10.537,7.952h11.119v15.515h-0.129V226.844z"/>
<path style="fill:#FFFFFF;" d="M248.016,195.362c-13.123,0-23.855,10.731-23.855,23.855c0,13.123,10.731,23.855,23.855,23.855
	s23.855-10.731,23.855-23.855C271.871,206.028,261.139,195.362,248.016,195.362z"/>
<g>
	<path style="fill:#194F82;" d="M248.016,173.446c-25.212,0-45.64,20.493-45.64,45.64s20.493,45.64,45.64,45.64
		s45.64-20.493,45.64-45.64C293.657,194.004,273.164,173.446,248.016,173.446z M248.016,243.006
		c-13.123,0-23.855-10.731-23.855-23.855c0-13.123,10.731-23.855,23.855-23.855s23.855,10.731,23.855,23.855
		C271.871,232.339,261.139,243.006,248.016,243.006z"/>
	<path style="fill:#194F82;" d="M113.358,36.978h-10.925c-6.012,0-10.925,4.848-10.925,10.925s4.848,10.925,10.925,10.925h10.925
		c6.012,0,10.925-4.848,10.925-10.925S119.434,36.978,113.358,36.978z"/>
	<path style="fill:#194F82;" d="M172.186,36.978h-10.925c-6.012,0-10.925,4.848-10.925,10.925s4.848,10.925,10.925,10.925h10.925
		c6.012,0,10.925-4.848,10.925-10.925S178.198,36.978,172.186,36.978z"/>
	<path style="fill:#194F82;" d="M58.925,36.978H48c-6.012,0-10.925,4.848-10.925,10.925S41.923,58.828,48,58.828h10.925
		c6.012,0,10.925-4.848,10.925-10.925S64.937,36.978,58.925,36.978z"/>
</g>
</svg>