<?xml version="1.0" encoding="iso-8859-1"?>
<!-- Uploaded to: SVG Repo, www.svgrepo.com, Generator: SVG Repo Mixer Tools -->
<svg version="1.1" id="Layer_1" xmlns="http://www.w3.org/2000/svg" xmlns:xlink="http://www.w3.org/1999/xlink" 
	 viewBox="0 0 392.598 392.598" xml:space="preserve">
<path style="fill:#FFC10D;" d="M370.78,32.711c0-6.012-4.848-10.925-10.925-10.925H32.743c-6.012,0-10.925,4.848-10.925,10.925
	v53.333H370.78L370.78,32.711L370.78,32.711z"/>
<path style="fill:#FFFFFF;" d="M21.818,359.822c0,6.012,4.848,10.925,10.925,10.925h327.111c6.012,0,10.925-4.848,10.925-10.925
	V107.895H21.818V359.822z"/>
<g>
	<path style="fill:#194F82;" d="M359.855,0H32.743C14.707,0,0.032,14.675,0.032,32.711v327.111
		c0,18.101,14.675,32.776,32.711,32.776h327.111c18.036,0,32.711-14.675,32.711-32.711V32.711C392.566,14.675,377.891,0,359.855,0z
		 M370.78,359.822c0,6.012-4.848,10.925-10.925,10.925H32.743c-6.012,0-10.925-4.848-10.925-10.925V107.895H370.78L370.78,359.822
		L370.78,359.822z M21.818,32.711c0-6.012,4.848-10.925,10.925-10.925h327.111c6.012,0,10.925,4.848,10.925,10.925v53.333H21.818
		V32.711z"/>
	<path style="fill:#194F82;" d="M48,64.776h189.802c6.012,0,10.925-4.848,10.925-10.925c0-6.012-4.848-10.925-10.925-10.925H48
		c-6.012,0-10.925,4.848-10.925,10.925C37.139,59.863,41.988,64.776,48,64.776z"/>
	<path style="fill:#194F82;" d="M279.24,64.776h10.925c6.012,0,10.925-4.848,10.925-10.925c0-6.012-4.848-10.925-10.925-10.925
		H279.24c-6.012,0-10.925,4.848-10.925,10.925C268.315,59.863,273.164,64.776,279.24,64.776z"/>
	<path style="fill:#194F82;" d="M333.673,64.776h10.925c6.012,0,10.925-4.848,10.925-10.925c0-6.012-4.848-10.925-10.925-10.925
		h-10.925c-6.012,0-10.925,4.848-10.925,10.925C322.812,59.863,327.661,64.776,333.673,64.776z"/>
</g>
<rect x="48" y="136.016" style="fill:#56ACE0;" width="296.663" height="206.61"/>
<g>
	<path style="fill:#194F82;" d="M96.873,173.317H69.269c-6.012,0-10.925-4.848-10.925-10.925c0-6.012,4.848-10.925,10.925-10.925
		h27.604c6.012,0,10.925,4.848,10.925,10.925C107.733,168.469,102.885,173.317,96.873,173.317z"/>
	<path style="fill:#194F82;" d="M96.873,213.527H69.269c-6.012,0-10.925-4.848-10.925-10.925c0-6.012,4.848-10.925,10.925-10.925
		h27.604c6.012,0,10.925,4.848,10.925,10.925C107.733,208.614,102.885,213.527,96.873,213.527z"/>
	<path style="fill:#194F82;" d="M291.588,213.527h-27.604c-6.012,0-10.925-4.848-10.925-10.925c0-6.012,4.848-10.925,10.925-10.925
		h27.604c6.012,0,10.925,4.848,10.925,10.925C302.513,208.679,297.6,213.527,291.588,213.527z"/>
	<path style="fill:#194F82;" d="M202.893,213.527h-54.174c-6.012,0-10.925-4.848-10.925-10.925c0-6.012,4.848-10.925,10.925-10.925
		h54.174c6.012,0,10.925,4.848,10.925,10.925C213.818,208.679,208.905,213.527,202.893,213.527z"/>
	<path style="fill:#194F82;" d="M203.41,293.754h-54.238c-6.012,0-10.925-4.849-10.925-10.925s4.848-10.925,10.925-10.925h54.174
		c6.012,0,10.925,4.848,10.925,10.925C214.335,288.84,209.422,293.754,203.41,293.754z"/>
	<path style="fill:#194F82;" d="M309.495,333.899H171.152c-6.012,0-10.925-4.849-10.925-10.925c0-6.012,4.848-10.925,10.925-10.925
		h138.343c6.012,0,10.925,4.848,10.925,10.925S315.507,333.899,309.495,333.899z"/>
	<path style="fill:#194F82;" d="M115.879,253.608H88.275c-6.012,0-10.925-4.848-10.925-10.925c0-6.012,4.848-10.925,10.925-10.925
		h27.604c6.012,0,10.925,4.848,10.925,10.925C126.739,248.76,121.891,253.608,115.879,253.608z"/>
	<path style="fill:#194F82;" d="M254.158,253.608h-27.604c-6.012,0-10.925-4.848-10.925-10.925c0-6.012,4.848-10.925,10.925-10.925
		h27.604c6.012,0,10.925,4.848,10.925,10.925C265.083,248.76,260.234,253.608,254.158,253.608z"/>
	<path style="fill:#194F82;" d="M323.329,253.608h-27.604c-6.012,0-10.925-4.848-10.925-10.925c0-6.012,4.848-10.925,10.925-10.925
		h27.604c6.012,0,10.925,4.848,10.925,10.925C334.255,248.76,329.341,253.608,323.329,253.608z"/>
	<path style="fill:#194F82;" d="M184.986,253.608h-27.604c-6.012,0-10.925-4.848-10.925-10.925c0-6.012,4.848-10.925,10.925-10.925
		h27.604c6.012,0,10.925,4.848,10.925,10.925C195.911,248.76,191.063,253.608,184.986,253.608z"/>
	<path style="fill:#194F82;" d="M96.873,293.754H69.269c-6.012,0-10.925-4.849-10.925-10.925s4.848-10.925,10.925-10.925h27.604
		c6.012,0,10.925,4.848,10.925,10.925C107.733,288.84,102.885,293.754,96.873,293.754z"/>
	<path style="fill:#194F82;" d="M125.382,333.899H97.778c-6.012,0-10.925-4.849-10.925-10.925c0-6.012,4.848-10.925,10.925-10.925
		h27.604c6.012,0,10.925,4.848,10.925,10.925S131.394,333.899,125.382,333.899z"/>
	<path style="fill:#194F82;" d="M272.905,293.754h-27.604c-6.012,0-10.925-4.849-10.925-10.925s4.848-10.925,10.925-10.925h27.604
		c6.012,0,10.925,4.848,10.925,10.925C283.766,288.84,278.917,293.754,272.905,293.754z"/>
	<path style="fill:#194F82;" d="M176.259,173.317h-27.604c-6.012,0-10.925-4.848-10.925-10.925c0-6.012,4.848-10.925,10.925-10.925
		h27.604c6.012,0,10.925,4.848,10.925,10.925S182.335,173.317,176.259,173.317z"/>
	<path style="fill:#194F82;" d="M282.473,173.317H228.17c-6.012,0-10.925-4.848-10.925-10.925c0-6.012,4.848-10.925,10.925-10.925
		h54.303c6.012,0,10.925,4.848,10.925,10.925C293.333,168.469,288.485,173.317,282.473,173.317z"/>
</g>
</svg>