<?xml version="1.0" encoding="iso-8859-1"?>
<!-- Uploaded to: SVG Repo, www.svgrepo.com, Generator: SVG Repo Mixer Tools -->
<svg version="1.1" id="Layer_1" xmlns="http://www.w3.org/2000/svg" xmlns:xlink="http://www.w3.org/1999/xlink" 
	 viewBox="0 0 392.727 392.727" xml:space="preserve">
<path style="fill:#FFC10D;" d="M32.808,133.818h327.111c6.012,0,10.925-4.848,10.925-10.925V32.711
	c0-6.012-4.848-10.925-10.925-10.925H32.808c-6.012,0-10.925,4.848-10.925,10.925v90.246
	C21.883,128.97,26.796,133.818,32.808,133.818z"/>
<path style="fill:#56ACE0;" d="M359.919,155.604H32.808c-6.012,0-10.925,4.848-10.925,10.925v90.246
	c0,6.012,4.848,10.925,10.925,10.925h327.111c6.012,0,10.925-4.848,10.925-10.925v-90.182
	C370.844,160.582,365.931,155.604,359.919,155.604z"/>
<rect x="179.426" y="336.873" style="fill:#FFFFFF;" width="33.745" height="33.745"/>
<g>
	<path style="fill:#194F82;" d="M392.63,32.711C392.63,14.675,377.956,0,359.919,0H32.808C14.772,0,0.097,14.675,0.097,32.711
		v90.246c0,8.339,3.168,15.968,8.404,21.786c-5.236,5.818-8.404,13.446-8.404,21.851v90.246c0,18.036,14.675,32.711,32.711,32.711
		h152.695v25.665h-16.937c-6.012,0-10.925,4.848-10.925,10.925v16.873H65.196c-6.012,0-10.925,4.848-10.925,10.925
		c0,6.012,4.848,10.925,10.925,10.925h92.444v16.937c0,6.012,4.848,10.925,10.925,10.925h55.596c6.012,0,10.925-4.848,10.925-10.925
		V364.8h92.121c6.012,0,10.925-4.848,10.925-10.925c0-6.012-4.848-10.925-10.925-10.925h-92.121v-16.937
		c0-6.012-4.848-10.925-10.925-10.925h-16.937v-25.665h152.695c18.036,0,32.711-14.675,32.711-32.711v-90.117
		c0-8.339-3.168-15.968-8.404-21.786c5.172-5.818,8.404-13.446,8.404-21.786V32.711z M370.844,256.776
		c0,6.012-4.848,10.925-10.925,10.925H32.808c-6.012,0-10.925-4.848-10.925-10.925v-90.182c0-6.012,4.848-10.925,10.925-10.925
		h327.111c6.012,0,10.925,4.848,10.925,10.925V256.776L370.844,256.776z M21.883,32.711c0-6.012,4.848-10.925,10.925-10.925h327.111
		c6.012,0,10.925,4.848,10.925,10.925v90.246c0,6.012-4.848,10.925-10.925,10.925H32.808c-6.012,0-10.925-4.848-10.925-10.925
		V32.711z M213.301,370.747h-33.745v-33.875h33.745V370.747z"/>
	<path style="fill:#194F82;" d="M239.741,43.442h-10.02c-6.012,0-10.925,4.848-10.925,10.925s4.848,10.925,10.925,10.925h10.02
		c6.012,0,10.925-4.848,10.925-10.925C250.602,48.291,245.754,43.442,239.741,43.442z"/>
	<path style="fill:#194F82;" d="M288.614,43.442h-10.02c-6.012,0-10.925,4.848-10.925,10.925s4.848,10.925,10.925,10.925h10.02
		c6.012,0,10.925-4.848,10.925-10.925S294.626,43.442,288.614,43.442z"/>
	<path style="fill:#194F82;" d="M337.552,43.442h-10.02c-6.012,0-10.925,4.848-10.925,10.925s4.848,10.925,10.925,10.925h10.02
		c6.012,0,10.925-4.848,10.925-10.925C348.541,48.291,343.564,43.442,337.552,43.442z"/>
	<path style="fill:#194F82;" d="M239.741,90.505h-10.02c-6.012,0-10.925,4.848-10.925,10.925c0,6.012,4.848,10.925,10.925,10.925
		h10.02c6.012,0,10.925-4.848,10.925-10.925C250.602,95.354,245.754,90.505,239.741,90.505z"/>
	<path style="fill:#194F82;" d="M288.614,90.505h-10.02c-6.012,0-10.925,4.848-10.925,10.925c0,6.012,4.848,10.925,10.925,10.925
		h10.02c6.012,0,10.925-4.848,10.925-10.925C299.539,95.354,294.626,90.505,288.614,90.505z"/>
	<path style="fill:#194F82;" d="M337.552,90.505h-10.02c-6.012,0-10.925,4.848-10.925,10.925c0,6.012,4.848,10.925,10.925,10.925
		h10.02c6.012,0,10.925-4.848,10.925-10.925C348.541,95.354,343.564,90.505,337.552,90.505z"/>
	<path style="fill:#194F82;" d="M239.741,177.261h-10.02c-6.012,0-10.925,4.848-10.925,10.925c0,6.077,4.848,10.925,10.925,10.925
		h10.02c6.012,0,10.925-4.848,10.925-10.925C250.667,182.109,245.754,177.261,239.741,177.261z"/>
	<path style="fill:#194F82;" d="M288.614,177.261h-10.02c-6.012,0-10.925,4.848-10.925,10.925c0,6.077,4.848,10.925,10.925,10.925
		h10.02c6.012,0,10.925-4.848,10.925-10.925C299.539,182.109,294.626,177.261,288.614,177.261z"/>
	<path style="fill:#194F82;" d="M337.552,177.261h-10.02c-6.012,0-10.925,4.848-10.925,10.925c0,6.077,4.848,10.925,10.925,10.925
		h10.02c6.012,0,10.925-4.848,10.925-10.925C348.541,182.109,343.564,177.261,337.552,177.261z"/>
	<path style="fill:#194F82;" d="M239.741,224.323h-10.02c-6.012,0-10.925,4.848-10.925,10.925c0,6.012,4.848,10.925,10.925,10.925
		h10.02c6.012,0,10.925-4.848,10.925-10.925C250.602,229.172,245.754,224.323,239.741,224.323z"/>
	<path style="fill:#194F82;" d="M288.614,224.323h-10.02c-6.012,0-10.925,4.848-10.925,10.925c0,6.012,4.848,10.925,10.925,10.925
		h10.02c6.012,0,10.925-4.848,10.925-10.925S294.626,224.323,288.614,224.323z"/>
	<path style="fill:#194F82;" d="M337.552,224.323h-10.02c-6.012,0-10.925,4.848-10.925,10.925c0,6.012,4.848,10.925,10.925,10.925
		h10.02c6.012,0,10.925-4.848,10.925-10.925C348.541,229.172,343.564,224.323,337.552,224.323z"/>
	<path style="fill:#194F82;" d="M58.99,43.442c-6.012,0-10.925,4.848-10.925,10.925v47.063c0,6.012,4.848,10.925,10.925,10.925
		s10.925-4.848,10.925-10.925V54.368C69.851,48.291,65.002,43.442,58.99,43.442z"/>
	<path style="fill:#194F82;" d="M111.03,43.442c-6.012,0-10.925,4.848-10.925,10.925v47.063c0,6.012,4.848,10.925,10.925,10.925
		c6.077,0,10.925-4.848,10.925-10.925V54.368C121.956,48.291,117.107,43.442,111.03,43.442z"/>
	<path style="fill:#194F82;" d="M58.99,177.261c-6.012,0-10.925,4.848-10.925,10.925v47.063c0,6.012,4.848,10.925,10.925,10.925
		s10.925-4.848,10.925-10.925v-47.063C69.851,182.109,65.002,177.261,58.99,177.261z"/>
	<path style="fill:#194F82;" d="M111.03,177.261c-6.012,0-10.925,4.848-10.925,10.925v47.063c0,6.012,4.848,10.925,10.925,10.925
		c6.077,0,10.925-4.848,10.925-10.925v-47.063C121.956,182.109,117.107,177.261,111.03,177.261z"/>
</g>
</svg>