<svg xmlns="http://www.w3.org/2000/svg" shape-rendering="geometricPrecision" text-rendering="geometricPrecision" image-rendering="optimizeQuality" fill-rule="evenodd" clip-rule="evenodd" viewBox="0 0 363 511.493"><path fill-rule="nonzero" d="M46.73 0h256.775c16.337 0 31.205 6.707 41.982 17.475C356.293 28.289 363 43.172 363 59.495v443.542c0 4.665-3.791 8.456-8.455 8.456a8.428 8.428 0 01-5.419-1.967L181.417 378.99 13.64 509.677c-3.662 2.856-8.967 2.207-11.824-1.455a8.41 8.41 0 01-1.778-5.185L0 46.729C0 33.911 5.252 22.23 13.723 13.753 22.246 5.245 33.919 0 46.73 0zm236.126 234.175c.377 0 .754.038 1.123.106a127.995 127.995 0 006.617-13.271c.037-.083.075-.174.128-.271a113.56 113.56 0 006.767-21.982c1.183-5.893 1.907-11.937 2.185-18.131h-35.651c-.649 18.093-6.052 35.945-16.12 53.549h34.951zm-6.216 11.357h-35.909c-10.896 15.787-25.583 31.386-43.978 46.782 2.886-.355 5.742-.814 8.56-1.379a112.731 112.731 0 0022.261-6.888v-.008c7.257-3.127 14.016-6.782 20.279-10.972a114.471 114.471 0 0017.407-14.34l.023-.023a114.996 114.996 0 0011.357-13.172zm-110.393 46.782c-18.395-15.396-33.082-30.995-43.986-46.782H86.368a115.723 115.723 0 0011.349 13.172l.023.023a114.471 114.471 0 0017.407 14.34c6.255 4.19 13.014 7.845 20.287 10.972.083.038.173.076.271.129a113.56 113.56 0 0021.982 6.767c2.826.565 5.674 1.024 8.56 1.379zM78.96 234.175h36.135c-10.068-17.611-15.471-35.456-16.12-53.549H63.324a119.003 119.003 0 002.193 18.131 112.744 112.744 0 006.879 22.26h.008a130.473 130.473 0 006.556 13.158zm-15.636-64.913h35.87c1.326-17.725 7.204-35.569 17.747-53.542H78.96a128.897 128.897 0 00-6.556 13.157c-.037.083-.075.181-.12.271a112.483 112.483 0 00-6.767 21.982 119.124 119.124 0 00-2.193 18.132zm23.044-64.906h37.852c10.784-15.539 25.034-31.168 42.826-46.881-3.157.377-6.277.867-9.359 1.485a112.636 112.636 0 00-22.253 6.88v.008c-7.265 3.127-14.024 6.782-20.287 10.972A115.66 115.66 0 0097.74 91.161l-.023.022a115.646 115.646 0 00-11.349 13.173zm109.586-46.881c17.784 15.713 32.042 31.342 42.826 46.881h37.86a115.082 115.082 0 00-11.364-13.173l-.016-.022a114.419 114.419 0 00-17.407-14.341c-6.263-4.19-13.022-7.845-20.287-10.972-.083-.038-.18-.076-.263-.128a113.235 113.235 0 00-21.99-6.76 119.882 119.882 0 00-9.359-1.485zm88.086 58.245h-37.981c10.543 17.973 16.428 35.817 17.747 53.542h35.87a120.015 120.015 0 00-2.185-18.132 113.488 113.488 0 00-6.887-22.26l-.008.007a128.897 128.897 0 00-6.556-13.157zm-96.858-50.875v39.511h37.626c-9.887-13.037-22.419-26.202-37.626-39.511zm0 50.875v53.542h65.26c-1.477-17.582-7.996-35.434-19.668-53.542h-45.592zm0 64.906v53.549h47.506c11.243-17.724 17.287-35.569 18.003-53.549h-65.509zm0 64.906v40.007c16.142-13.27 29.337-26.594 39.57-40.007h-39.57zm-11.364 40.007v-40.007h-39.563c10.226 13.406 23.421 26.737 39.563 40.007zm0-51.364v-53.549h-65.509c.716 17.98 6.752 35.825 18.003 53.549h47.506zm0-64.913V115.72h-45.592c-11.665 18.108-18.191 35.96-19.668 53.542h65.26zm0-64.906V64.838c-15.207 13.308-27.739 26.481-37.619 39.518h37.619z"/></svg>