<?xml version="1.0" encoding="iso-8859-1"?>
<svg fill="#ffffff" version="1.1" id="Capa_1" xmlns="http://www.w3.org/2000/svg" xmlns:xlink="http://www.w3.org/1999/xlink" 
	 width="800px" height="800px" viewBox="0 0 941.293 941.293"
	 xml:space="preserve">
<g>
	<g>
		<path d="M46.646,687.186h156.256c5.523,0,10-4.477,10-10V382.24c0-5.522-4.477-10-10-10H46.646c-5.523,0-10,4.478-10,10v294.945
			C36.646,682.709,41.123,687.186,46.646,687.186z"/>
		<path d="M46.646,352.369h507.315c5.523,0,10-4.477,10-10V305.18c0-5.523-4.477-10-10-10H46.646c-5.523,0-10,4.477-10,10v37.189
			C36.646,347.893,41.123,352.369,46.646,352.369z"/>
		<path d="M563.961,382.24c0-5.522-4.477-10-10-10H242.773c-5.523,0-10,4.478-10,10v43.833c0,5.523,4.477,10,10,10h311.188
			c5.521,0,10-4.477,10-10V382.24L563.961,382.24z"/>
		<path d="M563.961,465.944c0-5.522-4.477-10-10-10H242.773c-5.523,0-10,4.478-10,10v43.833c0,5.523,4.477,10,10,10h311.188
			c5.521,0,10-4.477,10-10V465.944L563.961,465.944z"/>
		<path d="M563.961,549.648c0-5.523-4.477-10-10-10H242.773c-5.523,0-10,4.477-10,10v43.833c0,5.523,4.477,10,10,10h311.188
			c5.521,0,10-4.477,10-10V549.648L563.961,549.648z"/>
		<path d="M553.961,623.353H242.773c-5.523,0-10,4.477-10,10v43.833c0,5.523,4.477,10,10,10h311.188c5.521,0,10-4.477,10-10v-43.833
			C563.961,627.829,559.482,623.353,553.961,623.353z"/>
		<path d="M399.794,275.308h154.167c5.523,0,10-4.477,10-10v-70.328c0-5.523-4.477-10-10-10H399.794c-5.523,0-10,4.477-10,10v70.328
			C389.794,270.831,394.271,275.308,399.794,275.308z"/>
		<path d="M10,890.146h921.293c5.521,0,10-4.477,10-10v-26c0-5.523-4.479-10-10-10h-30.498v-783c0-5.523-4.479-10-10-10H593.832
			c-5.523,0-10,4.477-10,10v783h-19.871v-127.09c0-5.523-4.477-10-10-10H46.646c-5.523,0-10,4.477-10,10v127.09H10
			c-5.523,0-10,4.477-10,10v26C0,885.67,4.477,890.146,10,890.146z M785.332,844.146h-86.037v-71.24c0-5.522,4.477-10,10-10h66.037
			c5.523,0,10,4.478,10,10V844.146z M626.795,168.063c0-5.523,4.477-10,10-10h211.037c5.523,0,10,4.477,10,10v33.833
			c0,5.523-4.477,10-10,10H636.795c-5.523,0-10-4.477-10-10V168.063z M626.795,315.473c0-5.523,4.477-10,10-10h211.037
			c5.523,0,10,4.477,10,10v33.833c0,5.522-4.477,10-10,10H636.795c-5.523,0-10-4.478-10-10V315.473z M626.795,462.882
			c0-5.523,4.477-10,10-10h211.037c5.523,0,10,4.477,10,10v33.833c0,5.522-4.477,10-10,10H636.795c-5.523,0-10-4.478-10-10V462.882z
			 M626.795,610.29c0-5.522,4.477-10,10-10h211.037c5.523,0,10,4.478,10,10v33.833c0,5.523-4.477,10-10,10H636.795
			c-5.523,0-10-4.477-10-10V610.29z"/>
	</g>
</g>
</svg>