<?xml version="1.0" encoding="iso-8859-1"?>
<svg fill="#ffffff" version="1.1" id="Capa_1" xmlns="http://www.w3.org/2000/svg" xmlns:xlink="http://www.w3.org/1999/xlink" 
	 width="800px" height="800px" viewBox="0 0 955.469 955.47"
	 xml:space="preserve">
<g>
	<g>
		<path d="M133.097,425.945c0,1.481,0,36.341,0,36.341v54.166v27.186v13.985c0,6.479,6.06,11.252,12.354,9.716
			c77.041-18.812,197.234-30.91,332.284-30.91s255.243,12.099,332.284,30.91c6.294,1.537,12.354-3.237,12.354-9.716v-13.985v-23.995
			c0,0,0-92.216,0-93.697c0-25.434-34.619-48.586-91.281-65.914c-62.973-19.256-153.169-31.319-253.356-31.319
			s-190.384,12.062-253.355,31.318C167.716,377.358,133.097,400.511,133.097,425.945z M710.402,432.937
			c0-6.494,6.102-11.276,12.404-9.71c17.055,4.241,32.582,8.915,46.336,13.957c3.953,1.449,6.593,5.193,6.593,9.403v32.942
			c0,6.853-6.739,11.696-13.218,9.467c-13.363-4.601-28.24-8.87-44.431-12.757c-4.501-1.081-7.686-5.097-7.686-9.726
			L710.402,432.937L710.402,432.937z M495.068,407.586c0-5.613,4.624-10.123,10.236-10.001
			c59.172,1.274,114.335,6.344,162.081,14.299c4.822,0.803,8.349,4.979,8.349,9.868v33.893c0,6.151-5.503,10.862-11.575,9.874
			c-47.124-7.67-101.3-12.548-159.318-13.777c-5.433-0.115-9.772-4.562-9.772-9.994V407.586z M279.735,421.106
			c0-4.905,3.551-9.091,8.395-9.875c47.895-7.754,103.031-12.629,162.065-13.728c5.601-0.104,10.207,4.399,10.207,10.002v34.161
			c0,5.443-4.359,9.895-9.802,9.994c-57.902,1.061-112.064,5.753-159.333,13.232c-6.059,0.958-11.532-3.748-11.532-9.882V421.106
			L279.735,421.106z M245.068,431.976v33.61c0,4.651-3.217,8.682-7.748,9.739c-16.144,3.768-31.031,7.909-44.469,12.378
			c-6.458,2.146-13.116-2.695-13.116-9.501v-33.027c0-4.254,2.693-8.028,6.705-9.443c13.824-4.875,29.332-9.391,46.29-13.482
			C239.016,420.731,245.068,425.51,245.068,431.976z"/>
		<path d="M224.38,236.417v16.373v47.761v16.859v10.664c0,6.591,6.267,11.398,12.621,9.648
			c62.119-17.111,147.061-27.656,240.734-27.656s178.615,10.545,240.734,27.656c6.354,1.75,12.621-3.058,12.621-9.648V317.41
			v-15.396v-47.761v-17.835v-3.38l-0.136-0.089c0.079-0.757,0.136-1.517,0.136-2.28c0-20.878-29.264-39.745-76.38-53.263
			c-45.667-13.104-108.105-21.182-176.976-21.182s-131.309,8.078-176.976,21.181c-47.116,13.518-76.379,32.385-76.379,53.263
			c0,0.763,0.055,1.522,0.135,2.28l-0.135,0.089V236.417L224.38,236.417z M625.068,226.878c0-6.394,5.924-11.167,12.162-9.765
			c17.645,3.968,33.719,8.573,47.871,13.708c3.973,1.441,6.634,5.192,6.634,9.418v26.572c0,6.821-6.688,11.673-13.15,9.49
			c-13.679-4.621-28.971-8.77-45.595-12.362c-4.614-0.997-7.921-5.06-7.921-9.78L625.068,226.878L625.068,226.878z M495.068,211.443
			c0-5.646,4.675-10.182,10.318-10c26.766,0.864,52.39,2.925,76.308,6.011c4.985,0.643,8.707,4.896,8.707,9.921v27.594
			c0,6.001-5.251,10.673-11.206,9.927c-23.389-2.934-48.373-4.891-74.436-5.713c-5.398-0.17-9.692-4.589-9.692-9.99L495.068,211.443
			L495.068,211.443z M365.068,217.126c0-5.036,3.738-9.294,8.735-9.925c23.941-3.022,49.56-5.022,76.303-5.826
			c5.634-0.169,10.295,4.364,10.295,10.001v27.752c0,5.41-4.307,9.832-9.714,9.99c-26.045,0.765-51.027,2.666-74.44,5.539
			c-5.945,0.729-11.179-3.94-11.179-9.93V217.126L365.068,217.126z M263.735,239.533c0-4.251,2.692-8.02,6.699-9.441
			c14.193-5.035,30.255-9.545,47.845-13.428c6.229-1.374,12.124,3.396,12.124,9.772v27.298c0,4.735-3.326,8.805-7.958,9.788
			c-16.599,3.523-31.896,7.597-45.617,12.139c-6.45,2.135-13.092-2.715-13.092-9.51L263.735,239.533L263.735,239.533z"/>
		<path d="M300.759,84.309v47.761v7.315v5.425c0,6.511,6.115,11.283,12.431,9.696c44.269-11.123,101.731-17.842,164.545-17.842
			c62.812,0,120.276,6.719,164.545,17.842c6.315,1.587,12.431-3.185,12.431-9.696v-5.425v-3.163V88.461V72.976
			c0-0.722-0.063-1.44-0.183-2.154c0.119-1.021,0.183-2.046,0.183-3.078C654.71,30.33,575.476,0,477.735,0
			S300.758,30.33,300.758,67.744c0,1.032,0.064,2.057,0.184,3.078c-0.119,0.714-0.184,1.433-0.184,2.154L300.759,84.309
			L300.759,84.309z M495.068,45.376c0-5.809,4.935-10.382,10.729-9.979C550.03,38.483,589.26,48.268,618.07,62.35
			c3.453,1.688,5.664,5.17,5.664,9.014v26.13c0,6.993-6.995,11.841-13.53,9.352c-25.817-9.832-64.461-15.897-105.603-17.902
			c-5.334-0.26-9.534-4.643-9.534-9.984L495.068,45.376L495.068,45.376z M331.735,69.493c0-3.928,2.305-7.475,5.876-9.113
			c29.284-13.439,68.38-22.622,112.158-25.251c5.76-0.346,10.632,4.214,10.632,9.985v33.539c0,5.386-4.268,9.787-9.65,9.989
			c-40.212,1.514-78.575,6.983-105.613,16.687c-6.529,2.343-13.403-2.462-13.403-9.398L331.735,69.493L331.735,69.493z"/>
		<path d="M56.718,636.183v273.118H19.735c-5.523,0-10,4.477-10,10v26.169c0,5.523,4.477,10,10,10h916c5.523,0,10-4.477,10-10
			v-26.169c0-5.523-4.477-10-10-10h-36.983V636.183c0-17.128-28.258-32.999-76.379-46.021
			c-76.176-20.613-202.136-34.084-344.638-34.084s-268.462,13.471-344.638,34.084C84.976,603.184,56.718,619.055,56.718,636.183z
			 M585.387,639.392c0-5.597,4.596-10.096,10.191-10.001c76.183,1.3,147.274,7.595,208.758,17.676
			c4.838,0.793,8.384,4.972,8.384,9.873v47.894c0,6.165-5.519,10.848-11.605,9.868c-60.843-9.792-130.917-15.896-205.916-17.159
			c-5.448-0.092-9.812-4.547-9.812-9.996L585.387,639.392L585.387,639.392z M396.735,764.386c0-5.523,4.477-10,10-10h142
			c5.523,0,10,4.477,10,10v144.915h-162V764.386z M142.75,656.938c0-4.901,3.546-9.08,8.383-9.873
			c61.483-10.081,132.576-16.376,208.758-17.676c5.596-0.095,10.191,4.404,10.191,10.001v48.153c0,5.449-4.364,9.903-9.812,9.996
			c-74.998,1.264-145.073,7.368-205.916,17.159c-6.087,0.979-11.605-3.703-11.605-9.868L142.75,656.938L142.75,656.938z"/>
	</g>
</g>
</svg>