<svg width="275" height="275" viewBox="0 0 275 275" fill="none" xmlns="http://www.w3.org/2000/svg">
<g filter="url(#filter0_d_1_8)">
<circle cx="137" cy="137" r="125" fill="white"/>
</g>
<circle cx="137" cy="137" r="110" fill="#3258E2"/>
<path d="M171.144 101.682L163.708 83.5612L198.836 68.9447C199.542 68.6456 200.32 68.5639 201.073 68.7103C201.825 68.8567 202.516 69.2244 203.058 69.7663C203.6 70.3081 203.967 70.9995 204.114 71.7516C204.26 72.5038 204.178 73.2825 203.879 73.9878L189.263 109.204L171.144 101.682ZM83.7925 109.204L101.912 101.768L109.348 83.6467L74.2198 69.0301C73.5143 68.731 72.7355 68.6494 71.9833 68.7958C71.2311 68.9422 70.5397 69.3099 69.9979 69.8517C69.4561 70.3936 69.0885 71.0849 68.9422 71.8371C68.796 72.5892 68.8777 73.3679 69.177 74.0733L83.7925 109.204ZM221.999 136.386C222.003 137.078 221.802 137.756 221.422 138.334C221.042 138.912 220.499 139.364 219.862 139.634L165.93 162.029C164.155 162.775 162.743 164.186 161.998 165.961L139.776 219.812C139.514 220.458 139.065 221.012 138.486 221.402C137.907 221.792 137.226 222 136.528 222C135.83 222 135.148 221.792 134.57 221.402C133.991 221.012 133.542 220.458 133.28 219.812L110.887 165.705C110.129 164.058 108.79 162.749 107.126 162.029L53.2795 139.805C52.6327 139.543 52.079 139.094 51.6891 138.515C51.2992 137.937 51.0909 137.255 51.0909 136.557C51.0909 135.859 51.2992 135.177 51.6891 134.599C52.079 134.02 52.6327 133.571 53.2795 133.309L107.126 110.743C108.821 109.982 110.164 108.608 110.887 106.896L133.109 53.0459C133.422 52.4557 133.889 51.9618 134.461 51.6174C135.034 51.2729 135.689 51.0909 136.357 51.0909C137.025 51.0909 137.68 51.2729 138.252 51.6174C138.825 51.9618 139.292 52.4557 139.605 53.0459L162.169 106.982C162.906 108.762 164.321 110.176 166.101 110.914L185.417 118.863L220.033 133.138C220.638 133.433 221.145 133.897 221.494 134.473C221.842 135.049 222.018 135.713 221.999 136.386V136.386ZM157.468 136.386C157.484 132.245 156.272 128.192 153.985 124.74C151.697 121.288 148.438 118.592 144.618 116.992C140.798 115.392 136.589 114.961 132.524 115.753C128.459 116.544 124.72 118.524 121.78 121.44C118.84 124.356 116.831 128.079 116.007 132.137C115.182 136.195 115.58 140.407 117.15 144.239C118.719 148.071 121.389 151.352 124.824 153.666C128.258 155.981 132.301 157.225 136.442 157.242H136.528C142.067 157.242 147.381 155.047 151.306 151.138C155.23 147.229 157.446 141.925 157.468 136.386ZM83.7925 163.482L69.177 198.699C68.8775 199.404 68.7956 200.183 68.9417 200.935C69.0879 201.688 69.4555 202.379 69.9974 202.921C70.5393 203.463 71.2307 203.831 71.9831 203.977C72.7354 204.123 73.5143 204.041 74.2198 203.742L109.348 189.125L101.912 170.577L83.7925 163.482ZM189.263 163.482L171.144 170.577L163.708 188.698L198.836 203.315C199.542 203.614 200.32 203.696 201.073 203.549C201.825 203.403 202.516 203.035 203.058 202.494C203.6 201.952 203.968 201.26 204.114 200.508C204.26 199.756 204.178 198.977 203.879 198.272L189.263 163.482Z" fill="white"/>
<defs>
<filter id="filter0_d_1_8" x="-3" y="-3" width="280" height="280" filterUnits="userSpaceOnUse" color-interpolation-filters="sRGB">
<feFlood flood-opacity="0" result="BackgroundImageFix"/>
<feColorMatrix in="SourceAlpha" type="matrix" values="0 0 0 0 0 0 0 0 0 0 0 0 0 0 0 0 0 0 127 0" result="hardAlpha"/>
<feOffset/>
<feGaussianBlur stdDeviation="7.5"/>
<feComposite in2="hardAlpha" operator="out"/>
<feColorMatrix type="matrix" values="0 0 0 0 0 0 0 0 0 0 0 0 0 0 0 0 0 0 0.4 0"/>
<feBlend mode="normal" in2="BackgroundImageFix" result="effect1_dropShadow_1_8"/>
<feBlend mode="normal" in="SourceGraphic" in2="effect1_dropShadow_1_8" result="shape"/>
</filter>
</defs>
</svg>
