<svg xmlns="http://www.w3.org/2000/svg" width="512" height="512" viewBox="0 0 512 512" style="color:#00853e" class="h-full w-full"><rect width="512" height="512" x="0" y="0" rx="30" fill="transparent" stroke="transparent" stroke-width="0" stroke-opacity="100%" paint-order="stroke"/><svg xmlns="http://www.w3.org/2000/svg" width="512px" height="512px" viewBox="0 0 32 32" fill="#00853e" x="0" y="0" role="img" style="display:inline-block;vertical-align:middle"><g fill="#00853e"><path fill="#00853e" d="M28 6H4a2 2 0 0 0-2 2v16a2 2 0 0 0 2 2h24a2 2 0 0 0 2-2V8a2 2 0 0 0-2-2Zm-2.2 2L16 14.78L6.2 8ZM4 24V8.91l11.43 7.91a1 1 0 0 0 1.14 0L28 8.91V24Z"/></g></svg></svg>