<?xml version="1.0" encoding="iso-8859-1"?>
<!-- Uploaded to: SVG Repo, www.svgrepo.com, Generator: SVG Repo Mixer Tools -->
<svg height="800px" width="800px" version="1.1" id="Layer_1" xmlns="http://www.w3.org/2000/svg" xmlns:xlink="http://www.w3.org/1999/xlink" 
	 viewBox="0 0 512.001 512.001" xml:space="preserve">
<path style="fill:#F4D853;" d="M408.528,16.276c-3.055-9.686-12.039-16.27-22.194-16.27H125.67c-10.158,0-19.139,6.586-22.194,16.27
	C81.459,86.065,69.823,168.96,69.823,256c0,87.041,11.636,169.936,33.653,239.723c3.055,9.684,12.036,16.27,22.194,16.27h260.664
	c10.154,0,19.139-6.586,22.194-16.27c22.014-69.781,33.65-152.676,33.65-239.723C442.178,168.954,430.542,86.059,408.528,16.276z"/>
<path style="fill:#E9A440;" d="M408.528,16.276c-3.055-9.686-12.039-16.27-22.194-16.27H256.001v511.988h130.333
	c10.154,0,19.139-6.586,22.194-16.27c22.014-69.781,33.65-152.676,33.65-239.723C442.178,168.954,430.542,86.059,408.528,16.276z"/>
<path style="fill:#8CB7E8;" d="M408.742,482.447L278.409,17.004c-0.042-0.152-0.102-0.293-0.149-0.444
	c-0.127-0.425-0.27-0.844-0.42-1.261c-0.124-0.335-0.248-0.667-0.385-0.993c-0.146-0.346-0.299-0.684-0.464-1.024
	c-0.175-0.369-0.355-0.737-0.546-1.094c-0.155-0.284-0.318-0.559-0.486-0.835c-0.225-0.379-0.455-0.754-0.7-1.117
	c-0.172-0.254-0.355-0.501-0.54-0.749c-0.258-0.352-0.518-0.701-0.797-1.036c-0.213-0.259-0.439-0.507-0.664-0.757
	c-0.27-0.295-0.534-0.59-0.815-0.87c-0.273-0.273-0.56-0.532-0.846-0.791c-0.261-0.233-0.515-0.467-0.782-0.689
	c-0.327-0.27-0.667-0.523-1.008-0.776c-0.258-0.189-0.512-0.38-0.779-0.56c-0.352-0.239-0.718-0.461-1.088-0.683
	c-0.285-0.171-0.573-0.341-0.864-0.501c-0.349-0.188-0.703-0.36-1.061-0.531c-0.352-0.168-0.703-0.329-1.061-0.479
	c-0.315-0.13-0.633-0.253-0.957-0.369c-0.427-0.158-0.861-0.304-1.3-0.436c-0.143-0.043-0.279-0.101-0.424-0.143
	c-0.149-0.04-0.293-0.062-0.439-0.101c-0.467-0.121-0.934-0.225-1.406-0.318c-0.299-0.059-0.6-0.113-0.9-0.16
	c-0.439-0.068-0.878-0.119-1.325-0.161c-0.343-0.034-0.684-0.064-1.024-0.081c-0.394-0.02-0.785-0.025-1.179-0.025
	c-0.397,0-0.791,0.005-1.185,0.025c-0.34,0.019-0.683,0.047-1.021,0.081c-0.445,0.042-0.887,0.093-1.327,0.161
	c-0.299,0.047-0.6,0.101-0.903,0.16c-0.47,0.092-0.934,0.197-1.396,0.317c-0.149,0.039-0.296,0.059-0.445,0.101
	c-0.149,0.042-0.285,0.101-0.43,0.144c-0.436,0.132-0.864,0.276-1.288,0.431c-0.327,0.119-0.652,0.242-0.97,0.375
	c-0.352,0.147-0.7,0.307-1.046,0.473c-0.363,0.172-0.725,0.349-1.075,0.538c-0.289,0.157-0.566,0.324-0.849,0.492
	c-0.375,0.223-0.745,0.448-1.103,0.69c-0.261,0.177-0.512,0.365-0.766,0.552c-0.346,0.254-0.687,0.51-1.018,0.783
	c-0.264,0.219-0.518,0.45-0.773,0.681c-0.292,0.262-0.579,0.523-0.855,0.797c-0.279,0.279-0.543,0.572-0.808,0.866
	c-0.227,0.251-0.455,0.501-0.67,0.762c-0.276,0.334-0.537,0.681-0.794,1.032c-0.185,0.25-0.369,0.496-0.543,0.752
	c-0.245,0.361-0.473,0.735-0.697,1.111c-0.168,0.279-0.334,0.555-0.489,0.841c-0.191,0.354-0.366,0.717-0.543,1.084
	c-0.163,0.343-0.321,0.686-0.467,1.036c-0.137,0.321-0.258,0.647-0.379,0.976c-0.155,0.422-0.299,0.849-0.43,1.282
	c-0.042,0.146-0.102,0.284-0.146,0.433l-130.33,465.443c-3.463,12.376,3.758,25.219,16.135,28.685
	c2.098,0.588,4.209,0.869,6.288,0.869c10.176,0,19.521-6.726,22.397-17.004l107.921-385.412L363.92,494.991
	c2.878,10.28,12.224,17.004,22.4,17.004c2.076,0,4.187-0.281,6.288-0.869C404.984,507.667,412.21,494.823,408.742,482.447z"/>
<path style="fill:#6398DE;" d="M408.742,482.447L278.409,17.004c-0.042-0.152-0.102-0.293-0.149-0.444
	c-0.127-0.425-0.27-0.844-0.42-1.261c-0.124-0.335-0.248-0.667-0.385-0.993c-0.146-0.346-0.299-0.684-0.464-1.024
	c-0.175-0.369-0.355-0.737-0.546-1.094c-0.155-0.284-0.318-0.559-0.486-0.835c-0.225-0.379-0.455-0.754-0.7-1.117
	c-0.172-0.254-0.355-0.501-0.54-0.749c-0.258-0.352-0.518-0.701-0.797-1.036c-0.213-0.259-0.439-0.507-0.664-0.757
	c-0.27-0.295-0.534-0.59-0.815-0.87c-0.273-0.273-0.56-0.532-0.846-0.791c-0.261-0.233-0.515-0.467-0.782-0.689
	c-0.327-0.27-0.667-0.523-1.008-0.776c-0.258-0.189-0.512-0.38-0.779-0.56c-0.352-0.239-0.718-0.461-1.088-0.683
	c-0.285-0.171-0.573-0.341-0.864-0.501c-0.349-0.188-0.703-0.36-1.061-0.531c-0.352-0.168-0.703-0.329-1.061-0.479
	c-0.315-0.13-0.633-0.253-0.957-0.369c-0.427-0.158-0.861-0.304-1.3-0.436c-0.143-0.043-0.279-0.101-0.424-0.143
	c-0.149-0.04-0.293-0.062-0.439-0.101c-0.467-0.121-0.934-0.225-1.406-0.318c-0.299-0.059-0.6-0.113-0.9-0.16
	c-0.439-0.068-0.878-0.119-1.325-0.161c-0.343-0.034-0.684-0.064-1.024-0.081c-0.394-0.02-0.785-0.025-1.179-0.025h-0.003v109.561
	L363.92,494.992c2.878,10.28,12.224,17.004,22.4,17.004c2.076,0,4.187-0.281,6.288-0.869
	C404.984,507.667,412.21,494.823,408.742,482.447z"/>
<g>
	<path style="fill:#E07188;" d="M392.61,0.869c-12.382-3.468-25.221,3.758-28.687,16.135L256.001,402.416L148.08,17.004
		c-3.468-12.376-16.3-19.603-28.685-16.135c-12.379,3.466-19.6,16.309-16.135,28.685l130.33,465.443
		c0.051,0.177,0.118,0.346,0.169,0.521c0.098,0.313,0.197,0.624,0.303,0.931c0.143,0.406,0.299,0.802,0.464,1.195
		c0.098,0.236,0.191,0.473,0.296,0.706c0.233,0.517,0.487,1.018,0.757,1.511c0.061,0.109,0.112,0.222,0.172,0.33
		c0.709,1.252,1.524,2.422,2.433,3.5c0.118,0.14,0.242,0.271,0.363,0.41c0.33,0.375,0.67,0.742,1.024,1.094
		c0.191,0.191,0.388,0.374,0.585,0.559c0.303,0.281,0.613,0.554,0.931,0.818c0.233,0.195,0.47,0.391,0.712,0.579
		c0.315,0.244,0.639,0.472,0.967,0.697c0.248,0.172,0.49,0.351,0.745,0.514c0.557,0.354,1.128,0.684,1.713,0.99
		c0.197,0.102,0.406,0.191,0.607,0.289c0.451,0.22,0.909,0.43,1.376,0.621c0.216,0.088,0.436,0.169,0.658,0.251
		c0.503,0.188,1.008,0.357,1.524,0.51c0.112,0.034,0.222,0.081,0.337,0.113c0.098,0.028,0.197,0.047,0.296,0.071
		c0.285,0.076,0.572,0.144,0.861,0.209c0.285,0.065,0.569,0.124,0.852,0.177c0.282,0.053,0.56,0.102,0.842,0.144
		c0.327,0.05,0.652,0.085,0.979,0.121c0.239,0.026,0.483,0.056,0.725,0.074c0.534,0.04,1.067,0.062,1.593,0.065
		c0.039,0,0.076,0.005,0.115,0.005c0.003,0,0.009,0,0.012,0c0.003,0,0.009,0,0.012,0c0.039,0,0.076-0.005,0.115-0.005
		c0.527-0.005,1.058-0.026,1.59-0.065c0.248-0.019,0.493-0.05,0.74-0.076c0.321-0.034,0.639-0.07,0.957-0.118
		c0.289-0.043,0.573-0.095,0.858-0.147c0.282-0.053,0.56-0.11,0.839-0.174c0.292-0.067,0.579-0.135,0.867-0.211
		c0.099-0.026,0.197-0.045,0.296-0.071c0.115-0.033,0.222-0.079,0.337-0.113c0.515-0.154,1.021-0.323,1.52-0.51
		c0.222-0.082,0.445-0.163,0.664-0.253c0.464-0.189,0.915-0.399,1.367-0.618c0.203-0.098,0.416-0.188,0.614-0.292
		c0.582-0.304,1.151-0.636,1.707-0.988c0.258-0.164,0.503-0.344,0.751-0.517c0.324-0.225,0.648-0.451,0.96-0.692
		c0.245-0.188,0.483-0.383,0.718-0.582c0.315-0.264,0.624-0.535,0.925-0.815c0.2-0.185,0.397-0.368,0.588-0.559
		c0.355-0.352,0.69-0.72,1.024-1.095c0.118-0.137,0.245-0.268,0.363-0.406c0.909-1.081,1.724-2.251,2.433-3.506
		c0.057-0.101,0.105-0.205,0.161-0.307c0.276-0.501,0.534-1.012,0.773-1.538c0.101-0.225,0.191-0.455,0.285-0.681
		c0.166-0.402,0.327-0.808,0.473-1.223c0.105-0.299,0.203-0.602,0.296-0.906c0.054-0.18,0.124-0.352,0.172-0.535L408.74,29.555
		C412.21,17.178,404.984,4.335,392.61,0.869z"/>
	<path style="fill:#E07188;" d="M417.364,46.55H94.641c-12.854,0-23.272-10.42-23.272-23.272S81.787,0.006,94.641,0.006h322.723
		c12.851,0,23.272,10.42,23.272,23.272S430.215,46.55,417.364,46.55z"/>
	<path style="fill:#E07188;" d="M417.364,511.994H94.641c-12.854,0-23.272-10.42-23.272-23.272
		c0-12.852,10.418-23.272,23.272-23.272h322.723c12.851,0,23.272,10.42,23.272,23.272
		C440.636,501.574,430.215,511.994,417.364,511.994z"/>
</g>
<g>
	<path style="fill:#DC4161;" d="M392.61,0.869c-12.382-3.468-25.221,3.758-28.687,16.135L256.001,402.416V512
		c0.003,0,0.009,0,0.012,0c0.039,0,0.076-0.005,0.115-0.005c0.527-0.005,1.058-0.026,1.59-0.065c0.248-0.019,0.493-0.05,0.74-0.076
		c0.321-0.034,0.639-0.07,0.957-0.118c0.289-0.043,0.572-0.095,0.858-0.147c0.282-0.053,0.56-0.11,0.839-0.174
		c0.292-0.067,0.579-0.135,0.867-0.211c0.099-0.026,0.197-0.045,0.296-0.071c0.115-0.033,0.222-0.079,0.337-0.113
		c0.515-0.154,1.021-0.323,1.52-0.51c0.222-0.082,0.445-0.163,0.664-0.253c0.464-0.189,0.915-0.399,1.367-0.617
		c0.203-0.098,0.416-0.188,0.614-0.292c0.582-0.304,1.151-0.636,1.707-0.988c0.258-0.164,0.503-0.344,0.751-0.517
		c0.324-0.225,0.649-0.451,0.96-0.692c0.245-0.188,0.483-0.383,0.718-0.582c0.315-0.264,0.624-0.535,0.925-0.815
		c0.2-0.185,0.397-0.368,0.588-0.559c0.355-0.352,0.69-0.72,1.024-1.095c0.118-0.137,0.245-0.268,0.363-0.406
		c0.909-1.081,1.724-2.251,2.433-3.506c0.057-0.101,0.105-0.205,0.161-0.307c0.276-0.501,0.534-1.012,0.773-1.538
		c0.101-0.225,0.191-0.455,0.285-0.681c0.166-0.402,0.327-0.808,0.473-1.223c0.105-0.299,0.203-0.602,0.296-0.906
		c0.054-0.18,0.124-0.352,0.172-0.535L408.742,29.554C412.21,17.178,404.984,4.335,392.61,0.869z"/>
	<path style="fill:#DC4161;" d="M440.636,23.278c0-12.852-10.421-23.272-23.272-23.272H256.001V46.55h161.363
		C430.215,46.55,440.636,36.131,440.636,23.278z"/>
	<path style="fill:#DC4161;" d="M417.364,465.449H256.001v46.544h161.363c12.851,0,23.272-10.42,23.272-23.272
		C440.636,475.869,430.215,465.449,417.364,465.449z"/>
</g>
</svg>