<?xml version="1.0" encoding="iso-8859-1"?>
<!-- Uploaded to: SVG Repo, www.svgrepo.com, Generator: SVG Repo Mixer Tools -->
<svg height="800px" width="800px" version="1.1" id="Layer_1" xmlns="http://www.w3.org/2000/svg" xmlns:xlink="http://www.w3.org/1999/xlink" 
	 viewBox="0 0 512 512" xml:space="preserve">
<path style="fill:#E07188;" d="M488.727,279.273H372.364c-51.33,0-93.091-31.322-93.091-69.818
	c0-12.854-10.422-23.273-23.273-23.273c-12.854,0-23.273,10.418-23.273,23.273c0,38.498-41.761,69.818-93.091,69.818H23.273
	C10.418,279.273,0,289.691,0,302.545C0,359.491,27.31,412.7,76.898,452.369C124.964,490.823,188.57,512,256,512
	c67.427,0,131.033-21.177,179.099-59.631C484.69,412.7,512,359.491,512,302.545C512,289.691,501.578,279.273,488.727,279.273z"/>
<path style="fill:#DC4161;" d="M488.727,279.273H372.364c-51.33,0-93.091-31.322-93.091-69.818
	c0-12.854-10.422-23.273-23.273-23.273V512c67.427,0,131.033-21.177,179.099-59.631C484.69,412.7,512,359.491,512,302.545
	C512,289.691,501.578,279.273,488.727,279.273z"/>
<path style="fill:#F4D853;" d="M273.015,7.395C268.612,2.679,262.451,0,256,0c-6.451,0-12.615,2.679-17.015,7.395
	c-6.994,7.494-68.318,74.909-68.318,133.793c0,30.658,8.561,54.312,25.442,70.307c14.87,14.089,35.022,21.232,59.892,21.232
	s45.019-7.143,59.889-21.232c16.884-15.995,25.445-39.649,25.445-70.307C341.333,82.303,280.007,14.888,273.015,7.395z"/>
<path style="fill:#D6E5F6;" d="M457.588,418.909h-85.225c-36.346,0-70.73-11.494-96.821-32.366
	c-7.43-5.945-13.964-12.449-19.543-19.409c-5.579,6.959-12.113,13.464-19.546,19.409c-26.087,20.873-60.472,32.366-96.818,32.366
	H54.409c-12.851,0-23.273-10.42-23.273-23.273s10.422-23.273,23.273-23.273h85.228c51.33,0,93.091-31.322,93.091-69.818
	c0-12.853,10.418-23.273,23.273-23.273c12.851,0,23.273,10.42,23.273,23.273c0,38.498,41.761,69.818,93.091,69.818h85.225
	c12.854,0,23.273,10.42,23.273,23.273S470.443,418.909,457.588,418.909z"/>
<path style="fill:#E9A440;" d="M341.333,141.188c0-58.885-61.327-126.3-68.318-133.793C268.612,2.679,262.451,0,256,0v232.727
	c24.869,0,45.019-7.143,59.889-21.232C332.772,195.5,341.333,171.846,341.333,141.188z"/>
<path style="fill:#BCD6F2;" d="M457.588,372.364h-85.225c-51.33,0-93.091-31.322-93.091-69.818
	c0-12.853-10.422-23.273-23.273-23.273v87.861c5.579,6.959,12.113,13.464,19.543,19.409c26.09,20.873,60.475,32.366,96.821,32.366
	h85.225c12.854,0,23.273-10.42,23.273-23.273S470.443,372.364,457.588,372.364z"/>
</svg>