<?xml version="1.0" encoding="iso-8859-1"?>
<!-- Uploaded to: SVG Repo, www.svgrepo.com, Generator: SVG Repo Mixer Tools -->
<svg height="800px" width="800px" version="1.1" id="Layer_1" xmlns="http://www.w3.org/2000/svg" xmlns:xlink="http://www.w3.org/1999/xlink" 
	 viewBox="0 0 512.001 512.001" xml:space="preserve">
<path style="fill:#DF6246;" d="M333.978,178.026c0-86.132-77.977-155.955-77.977-155.955s-77.977,69.823-77.977,155.955
	c-86.129,0-155.955,77.975-155.955,77.975s69.824,77.978,155.953,77.978c0,86.131,77.977,155.953,77.977,155.953
	s77.977-69.823,77.977-155.953c86.129,0,155.953-77.978,155.953-77.978S420.107,178.026,333.978,178.026z"/>
<path style="fill:#DD512A;" d="M333.978,178.026c0-86.132-77.977-155.955-77.977-155.955l-0.006,0.004v467.85l0.006,0.004
	c0,0,77.977-69.823,77.977-155.953c86.129,0,155.953-77.978,155.953-77.978S420.107,178.026,333.978,178.026z"/>
<path style="fill:#7AA937;" d="M256.001,512.001c-5.267,0-10.532-1.876-14.722-5.628c-3.227-2.888-73.599-66.843-84.037-151.613
	C72.471,344.322,8.516,273.948,5.628,270.723c-7.504-8.381-7.504-21.065,0-29.445c2.888-3.225,66.845-73.598,151.614-84.035
	C167.68,72.471,238.053,8.516,241.279,5.628c8.379-7.504,21.063-7.504,29.444,0c3.224,2.888,73.599,66.843,84.034,151.614
	c84.773,10.437,148.726,80.81,151.614,84.035c7.507,8.381,7.507,21.063,0,29.445c-2.888,3.225-66.842,73.599-151.614,84.037
	c-10.435,84.77-80.81,148.725-84.034,151.613C266.533,510.126,261.265,512.001,256.001,512.001z M53.762,255.965
	c23.394,20.697,71.048,55.944,124.262,55.944c12.187,0,22.07,9.881,22.07,22.07c0,53.173,35.194,100.797,55.907,124.22
	c20.713-23.422,55.907-71.047,55.907-124.22c0-12.188,9.88-22.07,22.07-22.07c53.467,0,100.942-35.164,124.263-55.872
	c-23.394-20.697-71.051-55.942-124.263-55.942c-12.19,0-22.07-9.881-22.07-22.07c0-53.469-35.164-100.944-55.873-124.264
	c-20.695,23.394-55.941,71.05-55.941,124.264c0,12.188-9.883,22.07-22.07,22.07C124.557,200.095,77.081,235.258,53.762,255.965z"/>
<path style="fill:#668E2F;" d="M506.371,241.279c-2.888-3.225-66.842-73.598-151.614-84.035
	C344.322,72.472,273.947,8.517,270.723,5.629C266.53,1.876,261.263,0,255.995,0.001v53.806c0.015-0.015,0.028-0.032,0.04-0.047
	c20.707,23.32,55.873,70.795,55.873,124.264c0,12.188,9.88,22.07,22.07,22.07c53.211,0,100.869,35.247,124.263,55.942
	c-23.32,20.706-70.795,55.872-124.263,55.872c-12.19,0-22.07,9.881-22.07,22.07c0,53.173-35.194,100.797-55.907,124.22
	c-0.003-0.001-0.003-0.004-0.006-0.006v53.81c0.003,0,0.003,0,0.006,0c5.264,0,10.532-1.876,14.722-5.628
	c3.224-2.888,73.599-66.843,84.034-151.613c84.772-10.439,148.726-80.813,151.614-84.038
	C513.876,262.342,513.876,249.659,506.371,241.279z"/>
<path style="fill:#E07188;" d="M421.413,90.589c0,0-104.509-5.768-165.414,55.137C195.099,84.821,90.588,90.589,90.588,90.589
	s-5.765,104.509,55.14,165.412c-60.905,60.903-55.14,165.414-55.14,165.414s104.512,5.766,165.414-55.137
	c60.905,60.902,165.414,55.137,165.414,55.137s5.768-104.51-55.137-165.414C427.181,195.099,421.413,90.589,421.413,90.589z"/>
<path style="fill:#DC4161;" d="M421.413,90.589c0,0-104.509-5.768-165.414,55.137c-0.003-0.001-0.003-0.003-0.006-0.006v220.563
	c0.003-0.001,0.003-0.003,0.006-0.006c60.905,60.902,165.414,55.137,165.414,55.137s5.768-104.51-55.137-165.414
	C427.181,195.099,421.413,90.589,421.413,90.589z"/>
<path style="fill:#8CB7E8;" d="M414.068,443.63c-0.003,0-0.003,0-0.006,0c-23.975,0-101.204-3.715-158.063-47.984
	c-56.859,44.27-134.088,47.984-158.066,47.984c-5.158,0-8.231-0.16-8.563-0.18c-11.233-0.619-20.201-9.589-20.822-20.82
	c-0.238-4.323-4.776-99.308,47.787-166.629C63.773,188.679,68.31,93.696,68.549,89.373c0.621-11.232,9.59-20.201,20.822-20.821
	c0.334-0.019,3.405-0.18,8.566-0.18c23.975,0,101.204,3.714,158.063,47.984c56.859-44.27,134.085-47.984,158.06-47.984
	c5.158,0,8.233,0.16,8.566,0.18c11.233,0.618,20.201,9.587,20.822,20.819c0.238,4.323,4.779,99.308-47.784,166.627
	c52.563,67.321,48.022,162.308,47.784,166.63c-0.621,11.232-9.587,20.2-20.819,20.819
	C422.296,443.469,419.227,443.63,414.068,443.63z M113.022,112.985c1.908,31.18,10.688,89.788,48.309,127.41
	c4.14,4.14,6.466,9.752,6.466,15.606c0,5.854-2.325,11.467-6.466,15.606c-37.618,37.617-46.398,96.213-48.306,127.41
	c31.179-1.87,89.641-10.617,127.368-48.344c4.139-4.139,9.753-6.463,15.606-6.463s11.466,2.326,15.603,6.463
	c37.729,37.727,96.196,46.476,127.374,48.346c-1.908-31.181-10.688-89.79-48.309-127.41c-4.139-4.139-6.463-9.752-6.463-15.606
	c0-5.854,2.325-11.466,6.463-15.606c37.826-37.823,46.521-96.291,48.363-127.413c-31.165,1.863-89.678,10.598-127.429,48.349
	c-4.139,4.139-9.75,6.465-15.603,6.465l0,0c-5.854,0-11.469-2.326-15.606-6.465C202.669,123.603,144.201,114.855,113.022,112.985z"
	/>
<path style="fill:#F4D853;" d="M255.995,278.065c-5.798,0-11.492-2.354-15.599-6.459c-4.118-4.105-6.471-9.799-6.471-15.611
	c0-5.795,2.354-11.491,6.471-15.596c4.106-4.12,9.799-6.474,15.599-6.474c5.81,0,11.503,2.354,15.609,6.474
	c4.104,4.105,6.461,9.799,6.461,15.596c0,5.812-2.357,11.506-6.461,15.611C267.498,275.71,261.805,278.065,255.995,278.065z"/>
<path style="fill:#E9A440;" d="M278.065,255.995c0-5.795-2.357-11.491-6.461-15.596c-4.106-4.12-9.799-6.474-15.609-6.474v44.139
	c5.81,0,11.503-2.354,15.609-6.459C275.708,267.5,278.065,261.807,278.065,255.995z"/>
<path style="fill:#6398DE;" d="M443.449,89.373c-0.621-11.232-9.59-20.201-20.822-20.819c-0.334-0.019-3.408-0.18-8.566-0.18
	c-23.975,0-101.201,3.714-158.06,47.984c-0.003-0.001-0.003-0.003-0.006-0.004v51.441c0.003,0,0.003,0,0.006,0
	c5.854,0,11.466-2.326,15.603-6.465c37.751-37.751,96.265-46.486,127.429-48.349c-1.842,31.12-10.538,89.59-48.363,127.413
	c-4.139,4.14-6.463,9.752-6.463,15.606s2.325,11.467,6.463,15.606c37.621,37.62,46.401,96.228,48.309,127.41
	c-31.179-1.87-89.647-10.617-127.374-48.346c-4.139-4.139-9.75-6.463-15.603-6.463c-0.003,0-0.003,0-0.006,0v51.441
	c0.003-0.001,0.003-0.003,0.006-0.004c56.859,44.269,134.088,47.984,158.063,47.984c0.003,0,0.003,0,0.006,0
	c5.158,0,8.228-0.16,8.56-0.18c11.233-0.619,20.198-9.589,20.819-20.819c0.238-4.323,4.779-99.309-47.784-166.63
	C448.228,188.679,443.687,93.696,443.449,89.373z"/>
</svg>