<?xml version="1.0" encoding="iso-8859-1"?>
<!-- Uploaded to: SVG Repo, www.svgrepo.com, Generator: SVG Repo Mixer Tools -->
<svg height="800px" width="800px" version="1.1" id="Layer_1" xmlns="http://www.w3.org/2000/svg" xmlns:xlink="http://www.w3.org/1999/xlink" 
	 viewBox="0 0 512 512" xml:space="preserve">
<circle style="fill:#D6E5F6;" cx="256" cy="256" r="232.727"/>
<path style="fill:#BCD6F2;" d="M256,23.273v465.455c128.534,0,232.727-104.195,232.727-232.727S384.534,23.273,256,23.273z"/>
<path style="fill:#DF6246;" d="M256,0C114.84,0,0,114.842,0,256s114.84,256,256,256c141.157,0,256-114.842,256-256S397.157,0,256,0z
	 M256,465.455c-51.33,0-93.091-41.761-93.091-93.091S204.67,279.273,256,279.273c76.994,0,139.636-62.641,139.636-139.636
	c0-1.834-0.048-3.657-0.118-5.475c-0.012-0.321-0.022-0.642-0.036-0.962c-0.079-1.739-0.191-3.468-0.334-5.19
	c-0.028-0.34-0.06-0.68-0.092-1.018c-0.158-1.759-0.343-3.514-0.563-5.255c-0.019-0.123-0.036-0.244-0.051-0.366
	c-0.222-1.683-0.479-3.356-0.757-5.019c-0.048-0.284-0.095-0.569-0.143-0.852c-0.293-1.679-0.621-3.345-0.973-5.004
	c-0.073-0.335-0.146-0.67-0.222-1.005c-0.369-1.674-0.763-3.339-1.192-4.99c-0.048-0.186-0.102-0.369-0.152-0.555
	c-0.42-1.595-0.874-3.176-1.348-4.749c-0.064-0.214-0.124-0.43-0.191-0.644c-0.503-1.626-1.036-3.236-1.596-4.838
	c-0.051-0.152-0.098-0.307-0.152-0.458c47.391,38.436,77.737,97.116,77.737,162.743C465.455,371.493,371.493,465.455,256,465.455z"
	/>
<path style="fill:#DD512A;" d="M512,256C512,114.843,397.16,0.002,256,0v279.273c76.997-0.002,139.636-62.641,139.636-139.636
	c0-1.834-0.048-3.657-0.118-5.475c-0.012-0.321-0.022-0.642-0.036-0.962c-0.079-1.739-0.191-3.468-0.334-5.19
	c-0.028-0.34-0.06-0.68-0.092-1.018c-0.158-1.759-0.343-3.514-0.563-5.255c-0.019-0.123-0.036-0.244-0.051-0.366
	c-0.222-1.683-0.479-3.356-0.757-5.019c-0.048-0.284-0.095-0.569-0.143-0.852c-0.293-1.679-0.621-3.345-0.973-5.004
	c-0.073-0.335-0.146-0.67-0.222-1.005c-0.369-1.674-0.763-3.339-1.192-4.99c-0.048-0.186-0.102-0.369-0.152-0.555
	c-0.42-1.595-0.874-3.176-1.348-4.749c-0.064-0.214-0.124-0.43-0.191-0.644c-0.503-1.626-1.036-3.236-1.596-4.838
	c-0.051-0.152-0.098-0.307-0.152-0.458c47.391,38.436,77.737,97.116,77.737,162.743c0,115.493-93.961,209.455-209.455,209.455V512
	C397.16,512,512,397.157,512,256z"/>
<path style="fill:#FFFFFF;" d="M256,162.911c-6.127,0-12.13-2.484-16.46-6.813c-4.327-4.344-6.813-10.333-6.813-16.46
	c0-6.13,2.486-12.134,6.813-16.462c4.33-4.33,10.333-6.811,16.46-6.811c6.13,0,12.119,2.481,16.463,6.811
	c4.327,4.343,6.81,10.332,6.81,16.462c0,6.128-2.482,12.116-6.81,16.46C268.119,160.427,262.13,162.911,256,162.911z"/>
<path style="fill:#DD512A;" d="M256,395.638c-6.127,0-12.13-2.484-16.46-6.813c-4.327-4.329-6.813-10.333-6.813-16.46
	c0-6.13,2.486-12.134,6.813-16.462c4.33-4.329,10.333-6.811,16.46-6.811c6.13,0,12.119,2.481,16.463,6.811
	c4.327,4.343,6.81,10.333,6.81,16.462s-2.482,12.116-6.81,16.46C268.119,393.154,262.13,395.638,256,395.638z"/>
</svg>