<?xml version="1.0" encoding="iso-8859-1"?>
<!-- Uploaded to: SVG Repo, www.svgrepo.com, Generator: SVG Repo Mixer Tools -->
<svg height="800px" width="800px" version="1.1" id="Layer_1" xmlns="http://www.w3.org/2000/svg" xmlns:xlink="http://www.w3.org/1999/xlink" 
	 viewBox="0 0 512 512" xml:space="preserve">
<path style="fill:#8CB7E8;" d="M302.421,10.224C298.094,3.831,290.873,0,283.152,0H174.545c-7.723,0-14.943,3.831-19.273,10.224
	c-4.33,6.395-5.204,14.521-2.337,21.692l31.03,77.576c3.534,8.836,12.091,14.629,21.609,14.629h46.545
	c9.515,0,18.072-5.793,21.606-14.629l31.03-77.576C307.627,24.747,306.752,16.62,302.421,10.224z"/>
<path style="fill:#6398DE;" d="M273.728,109.492l31.03-77.576c2.87-7.17,1.994-15.295-2.337-21.692
	C298.094,3.831,290.873,0,283.152,0h-54.303v124.121h23.273C261.637,124.121,270.193,118.328,273.728,109.492z"/>
<path style="fill:#8CB7E8;" d="M228.848,263.758c-68.442,0-124.121,55.681-124.121,124.121S160.406,512,228.848,512
	c68.439,0,124.121-55.681,124.121-124.121S297.287,263.758,228.848,263.758z"/>
<path style="fill:#6398DE;" d="M228.848,263.758V512c68.439,0,124.121-55.681,124.121-124.121S297.287,263.758,228.848,263.758z"/>
<g>
	<path style="fill:#F4D853;" d="M329.697,263.758h-35.033c2.582-7.284,4.003-15.115,4.003-23.273
		c0-17.869-6.754-34.183-17.836-46.545c11.082-12.362,17.836-28.677,17.836-46.545c0-8.158-1.421-15.988-4.003-23.273h4.003
		c12.851,0,23.273-10.42,23.273-23.273s-10.422-23.273-23.273-23.273H159.03c-12.854,0-23.273,10.42-23.273,23.273
		s10.418,23.273,23.273,23.273h4.003c-2.585,7.284-4.003,15.115-4.003,23.273c0,17.869,6.755,34.183,17.833,46.545
		c-11.079,12.362-17.833,28.677-17.833,46.545c0,8.158,1.418,15.988,4.003,23.273H128c-12.854,0-23.273,10.42-23.273,23.273
		c0,12.853,10.418,23.273,23.273,23.273h201.697c12.851,0,23.273-10.42,23.273-23.273
		C352.97,274.178,342.548,263.758,329.697,263.758z"/>
	<path style="fill:#F4D853;" d="M415.03,465.455H42.667c-12.854,0-23.273,10.42-23.273,23.273S29.812,512,42.667,512H415.03
		c12.851,0,23.273-10.42,23.273-23.273S427.881,465.455,415.03,465.455z"/>
</g>
<path style="fill:#D6E5F6;" d="M469.333,411.151c-12.854,0-23.273-10.42-23.273-23.273V147.394
	c0-12.833-10.439-23.273-23.273-23.273c-12.833,0-23.273,10.44-23.273,23.273v93.091c0,38.498-31.32,69.818-69.818,69.818
	c-12.854,0-23.273-10.42-23.273-23.273c0-12.853,10.418-23.273,23.273-23.273c12.834,0,23.273-10.44,23.273-23.273v-93.091
	c0-38.498,31.319-69.818,69.818-69.818c38.498,0,69.818,31.32,69.818,69.818v240.485
	C492.606,400.732,482.185,411.151,469.333,411.151z"/>
<g>
	<path style="fill:#E9A440;" d="M352.97,287.03c0-12.853-10.422-23.273-23.273-23.273h-35.033
		c2.582-7.284,4.003-15.115,4.003-23.273c0-17.869-6.754-34.183-17.836-46.545c11.082-12.362,17.836-28.677,17.836-46.545
		c0-8.158-1.421-15.988-4.003-23.273h4.003c12.851,0,23.273-10.42,23.273-23.273s-10.422-23.273-23.273-23.273h-69.818v232.727
		h100.848C342.548,310.303,352.97,299.883,352.97,287.03z"/>
	<path style="fill:#E9A440;" d="M415.03,465.455H228.848V512H415.03c12.851,0,23.273-10.42,23.273-23.273
		S427.881,465.455,415.03,465.455z"/>
</g>
</svg>