<?xml version="1.0" encoding="iso-8859-1"?>
<!-- Uploaded to: SVG Repo, www.svgrepo.com, Generator: SVG Repo Mixer Tools -->
<svg height="800px" width="800px" version="1.1" id="Layer_1" xmlns="http://www.w3.org/2000/svg" xmlns:xlink="http://www.w3.org/1999/xlink" 
	 viewBox="0 0 512.001 512.001" xml:space="preserve">
<path style="fill:#F4D853;" d="M339.934,451.846H318.95v-81.902c0-11.588-9.396-20.983-20.983-20.983
	c-11.59,0-20.983,9.395-20.983,20.983v81.902h-41.967v-81.902c0-11.588-9.396-20.983-20.983-20.983
	c-11.59,0-20.983,9.395-20.983,20.983v81.902h-20.983c-11.59,0-20.983,9.395-20.983,20.983s9.394,20.983,20.983,20.983h167.867
	c11.587,0,20.983-9.395,20.983-20.983C360.917,461.241,351.521,451.846,339.934,451.846z"/>
<path style="fill:#E9A440;" d="M339.934,451.846H318.95v-81.902c0-11.588-9.396-20.983-20.983-20.983
	c-11.59,0-20.983,9.395-20.983,20.983v81.902h-20.986v41.967h83.936c11.587,0,20.983-9.395,20.983-20.983
	C360.917,461.241,351.521,451.846,339.934,451.846z"/>
<path style="fill:#7AA937;" d="M492.085,226.113c-4.467-4.465-9.445-8.235-14.803-11.25c12.088-20.452,13.12-46.675,0.421-68.673
	c-9.082-15.728-23.743-26.979-41.284-31.678c-6.101-1.635-12.27-2.402-18.446-2.342c0.241-23.755-11.979-46.983-33.978-59.684
	c-22.01-12.708-48.248-11.667-68.707,0.439C303.625,32.211,281.418,18.188,256,18.188c-25.401,0-47.597,14.007-59.267,34.7
	c-5.289-3.132-11.041-5.559-17.142-7.193c-17.541-4.699-35.861-2.289-51.59,6.792c-15.729,9.08-26.978,23.742-31.678,41.283
	c-1.631,6.087-2.405,12.267-2.342,18.4c-6.186-0.064-12.317,0.711-18.401,2.342c-17.541,4.7-32.201,15.952-41.28,31.678
	c-9.082,15.726-11.495,34.048-6.792,51.59c1.631,6.087,4.048,11.826,7.172,17.107c-5.344,3.01-10.308,6.772-14.765,11.228
	C7.074,238.953,0,256.027,0,274.188c0,37.487,30.5,67.986,67.992,67.986c6.186-0.001,22.623-0.003,146.296-34.369
	c9.29-2.582,15.353-11.025,15.35-20.218h52.726c-0.006,9.194,6.057,17.636,15.347,20.218
	c123.682,34.367,140.113,34.369,146.302,34.369c37.483,0,67.983-30.497,67.989-67.986C512,256.028,504.926,238.954,492.085,226.113z
	"/>
<path style="fill:#668E2F;" d="M492.085,226.113c-4.467-4.465-9.445-8.235-14.803-11.25c12.088-20.452,13.12-46.675,0.421-68.673
	c-9.082-15.728-23.743-26.979-41.284-31.678c-6.101-1.635-12.27-2.402-18.446-2.342c0.241-23.755-11.979-46.983-33.978-59.684
	c-22.01-12.708-48.248-11.667-68.707,0.439C303.625,32.211,281.418,18.188,256,18.188c0,0,0,0-0.003,0v269.397h26.366
	c-0.006,9.194,6.057,17.636,15.347,20.218c123.682,34.367,140.113,34.369,146.302,34.369c37.483,0,67.983-30.497,67.989-67.986
	C512,256.028,504.926,238.954,492.085,226.113z"/>
<path style="fill:#8CB7E8;" d="M303.049,206.835c9.882-11.121,15.901-25.748,15.901-41.761c0-34.711-28.241-62.95-62.95-62.95
	c-34.714,0-62.95,28.239-62.95,62.95c0,16.013,6.019,30.641,15.901,41.763c-29.887,103.367-29.893,119.782-29.893,126.105
	c0,42.424,34.516,76.939,76.939,76.939c42.426,0,76.939-34.515,76.939-76.939C332.936,326.617,332.931,310.201,303.049,206.835z"/>
<path style="fill:#6398DE;" d="M303.049,206.835c9.882-11.121,15.901-25.748,15.901-41.761c0-34.711-28.241-62.95-62.95-62.95
	c0,0,0,0-0.003,0V409.88c42.426,0,76.939-34.515,76.939-76.939C332.936,326.617,332.931,310.201,303.049,206.835z"/>
<path style="fill:#F4D853;" d="M256,256.001c-11.59,0-20.983-9.395-20.983-20.983V207.04c0-11.588,9.394-20.983,20.983-20.983
	c11.587,0,20.983,9.395,20.983,20.983v27.978C276.983,246.606,267.587,256.001,256,256.001z"/>
<path style="fill:#E9A440;" d="M276.983,235.018V207.04c0-11.588-9.396-20.983-20.983-20.983c0,0,0,0-0.003,0v69.945
	c0.003,0,0.003,0,0.003,0C267.587,256.001,276.983,246.606,276.983,235.018z"/>
</svg>