<?xml version="1.0" encoding="iso-8859-1"?>
<!-- Uploaded to: SVG Repo, www.svgrepo.com, Generator: SVG Repo Mixer Tools -->
<svg version="1.1" id="Layer_1" xmlns="http://www.w3.org/2000/svg" xmlns:xlink="http://www.w3.org/1999/xlink" 
	 viewBox="0 0 512 512" xml:space="preserve">
<path style="fill:#F4D853;" d="M299.886,21.943H124.343L36.571,51.2v117.029c0,32.316,27.692,46.182,58.514,58.514L168.229,256H256
	l73.143-29.257c30.825-12.332,58.514-26.198,58.514-58.514V51.2L299.886,21.943z"/>
<path style="fill:#E9A440;" d="M299.886,21.943h-87.771V256H256l73.143-29.257c30.825-12.332,58.514-26.198,58.514-58.514V51.2
	L299.886,21.943z"/>
<path style="fill:#7AA937;" d="M256.006,277.949c-8.708,0-16.949-5.219-20.381-13.801c-4.5-11.251,0.971-24.022,12.222-28.523
	l73.143-29.257c33.855-13.542,44.724-22.809,44.724-38.14V67.016l-69.392-23.131H127.903L58.514,67.016v101.212
	c0,15.329,10.866,24.596,44.72,38.141l73.143,29.256c11.251,4.501,16.726,17.272,12.222,28.523
	c-4.5,11.251-17.272,16.726-28.523,12.225l-73.143-29.257c-25.268-10.11-72.305-28.928-72.305-78.887V51.2
	c0-9.446,6.043-17.829,15.003-20.816l87.771-29.257C119.64,0.38,121.983,0,124.343,0h175.543c2.357,0,4.7,0.38,6.937,1.126
	l87.771,29.257c8.96,2.987,15.006,11.371,15.006,20.816v117.029c0,49.962-47.037,68.781-72.309,78.889l-73.143,29.257
	C261.477,277.443,258.717,277.949,256.006,277.949z"/>
<path style="fill:#668E2F;" d="M394.594,30.384L306.823,1.126C304.586,0.38,302.242,0,299.886,0h-87.771v43.886h84.208
	l69.392,23.131v101.212c0,15.331-10.869,24.598-44.723,38.14l-73.143,29.257c-11.251,4.501-16.723,17.272-12.222,28.523
	c3.432,8.58,11.672,13.801,20.381,13.801c2.712,0,5.471-0.506,8.142-1.574l73.143-29.257c25.271-10.108,72.308-28.927,72.308-78.889
	V51.2C409.6,41.754,403.554,33.371,394.594,30.384z"/>
<rect x="168.229" y="138.971" style="fill:#F4D853;" width="87.771" height="263.314"/>
<rect x="212.114" y="138.971" style="fill:#E9A440;" width="43.886" height="263.314"/>
<path style="fill:#7AA937;" d="M387.657,277.943c-36.299,0-65.829,29.532-65.829,65.829v58.514c0,12.118,9.823,21.943,21.943,21.943
	h87.771c12.117,0,21.943-9.825,21.943-21.943v-58.514C453.486,307.475,423.955,277.943,387.657,277.943z"/>
<path style="fill:#7AA937;" d="M317.92,9.444C313.819,3.528,307.083,0,299.886,0H124.343c-7.197,0-13.937,3.528-18.037,9.444
	c-4.097,5.916-5.037,13.464-2.509,20.202l42.489,113.304v259.335c0,12.118,9.823,21.943,21.943,21.943H256
	c12.117,0,21.943-9.825,21.943-21.943V142.95l42.489-113.303C322.956,22.908,322.02,15.36,317.92,9.444z M234.057,380.343h-43.886
	v-43.886h43.886V380.343z M234.057,292.571h-43.886v-43.886h43.886V292.571z M234.057,204.8h-43.886v-43.886h43.886V204.8z"/>
<path style="fill:#668E2F;" d="M317.92,9.444C313.819,3.528,307.083,0,299.886,0h-87.771v160.914h21.943V204.8h-21.943v43.886
	h21.943v43.886h-21.943v43.886h21.943v43.886h-21.943v43.886H256c12.117,0,21.943-9.825,21.943-21.943V142.95l42.489-113.303
	C322.956,22.908,322.02,15.36,317.92,9.444z"/>
<path style="fill:#7AA937;" d="M431.543,380.343h-307.2c-36.299,0-65.829,29.532-65.829,65.829S88.044,512,124.343,512h307.2
	c36.298,0,65.829-29.532,65.829-65.829S467.841,380.343,431.543,380.343z"/>
<path style="fill:#668E2F;" d="M431.543,380.343h-153.6V512h153.6c36.298,0,65.829-29.532,65.829-65.829
	S467.841,380.343,431.543,380.343z"/>
</svg>