<?xml version="1.0" encoding="iso-8859-1"?>
<!-- Uploaded to: SVG Repo, www.svgrepo.com, Generator: SVG Repo Mixer Tools -->
<svg height="800px" width="800px" version="1.1" id="Layer_1" xmlns="http://www.w3.org/2000/svg" xmlns:xlink="http://www.w3.org/1999/xlink" 
	 viewBox="0 0 512 512" xml:space="preserve">
<g>
	<path style="fill:#8CB7E8;" d="M256,480.97c-12.854,0-23.273-10.42-23.273-23.273V341.333c0-12.853,10.418-23.273,23.273-23.273
		c12.851,0,23.273,10.42,23.273,23.273v116.364C279.273,470.55,268.851,480.97,256,480.97z"/>
	<path style="fill:#8CB7E8;" d="M139.636,512c-12.854,0-23.273-10.42-23.273-23.273V372.364c0-12.853,10.418-23.273,23.273-23.273
		c12.851,0,23.273,10.42,23.273,23.273v116.364C162.909,501.58,152.488,512,139.636,512z"/>
	<path style="fill:#8CB7E8;" d="M372.364,512c-12.854,0-23.273-10.42-23.273-23.273V372.364c0-12.853,10.418-23.273,23.273-23.273
		c12.851,0,23.273,10.42,23.273,23.273v116.364C395.636,501.58,385.215,512,372.364,512z"/>
</g>
<path style="fill:#7AA937;" d="M512,190.061c0-87.69-62.642-159.03-139.636-159.03c-15.106,0-29.972,2.728-44.187,8.108
	c-12.018,4.551-18.075,17.984-13.525,30.005c2.954,7.81,9.666,13.078,17.299,14.578l-35.542,181.645
	c-6.912-1.347-14.348,0.42-19.997,5.483c-9.573,8.578-10.377,23.293-1.8,32.864c17.67,19.717,39.197,33.452,62.621,40.324
	l-8.957,17.917c-3.609,7.215-3.224,15.782,1.018,22.644c4.239,6.861,11.731,11.037,19.797,11.037h46.545c0.009,0,0.022,0,0.031,0
	c12.854,0,23.273-10.42,23.273-23.273c0-4.175-1.1-8.094-3.024-11.483l-8.442-16.884C467.53,326.218,512,263.945,512,190.061z"/>
<path style="fill:#DF6246;" d="M235.588,270.848c-5.679-5.092-13.169-6.85-20.115-5.458L178.825,83.198
	c7.691-1.556,14.421-6.937,17.292-14.853c4.385-12.082-1.854-25.431-13.936-29.815c-13.714-4.977-28.028-7.5-42.544-7.5
	C62.639,31.03,0,102.371,0,190.061c0,73.885,44.47,136.158,104.527,153.937l-8.979,17.957c-3.609,7.215-3.224,15.782,1.018,22.644
	c4.24,6.861,11.731,11.037,19.797,11.037h46.545c0.009,0,0.022,0,0.031,0c12.854,0,23.273-10.42,23.273-23.273
	c0-4.175-1.1-8.094-3.024-11.483l-8.422-16.842c23.425-6.872,44.952-20.61,62.621-40.329
	C245.966,294.138,245.161,279.425,235.588,270.848z"/>
<path style="fill:#668E2F;" d="M512,190.061c0-87.69-62.642-159.03-139.636-159.03v364.606h23.273c0.009,0,0.022,0,0.031,0
	c12.854,0,23.273-10.42,23.273-23.273c0-4.175-1.1-8.094-3.024-11.483l-8.442-16.884C467.53,326.218,512,263.945,512,190.061z"/>
<path style="fill:#DD512A;" d="M235.588,270.848c-5.679-5.092-13.169-6.85-20.115-5.458L178.825,83.198
	c7.691-1.556,14.421-6.937,17.292-14.853c4.385-12.082-1.854-25.431-13.936-29.815c-13.714-4.977-28.028-7.5-42.544-7.5v364.606
	h23.273c0.009,0,0.022,0,0.031,0c12.854,0,23.273-10.42,23.273-23.273c0-4.175-1.1-8.094-3.024-11.483l-8.422-16.842
	c23.425-6.872,44.952-20.61,62.621-40.329C245.966,294.138,245.161,279.425,235.588,270.848z"/>
<path style="fill:#D6E5F6;" d="M395.636,159.03C395.636,71.34,332.994,0,256,0c-76.997,0-139.636,71.34-139.636,159.03
	c0,73.885,44.47,136.158,104.527,153.937l-8.979,17.957c-3.609,7.215-3.224,15.782,1.018,22.644
	c4.239,6.861,11.731,11.037,19.797,11.037h46.545c0.009-0.002,0.022-0.002,0.031,0c12.854,0,23.273-10.42,23.273-23.273
	c0-4.175-1.1-8.094-3.024-11.483l-8.442-16.884C351.167,295.188,395.636,232.915,395.636,159.03z"/>
<path style="fill:#BCD6F2;" d="M395.636,159.03C395.636,71.34,332.994,0,256,0v364.606h23.273c0.009-0.002,0.022-0.002,0.031,0
	c12.854,0,23.273-10.42,23.273-23.273c0-4.175-1.1-8.094-3.024-11.483l-8.442-16.884
	C351.167,295.188,395.636,232.915,395.636,159.03z"/>
</svg>