<?xml version="1.0" encoding="iso-8859-1"?>
<!-- Uploaded to: SVG Repo, www.svgrepo.com, Generator: SVG Repo Mixer Tools -->
<svg height="800px" width="800px" version="1.1" id="Layer_1" xmlns="http://www.w3.org/2000/svg" xmlns:xlink="http://www.w3.org/1999/xlink" 
	 viewBox="0 0 512 512" xml:space="preserve">
<path style="fill:#DF6246;" d="M272.083,12.48C267.818,8.215,262.032,5.818,256,5.818c-6.032,0-11.816,2.397-16.08,6.662
	L72.212,180.189h367.576L272.083,12.48z"/>
<path style="fill:#7AA937;" d="M239.919,499.518c4.44,4.441,10.262,6.662,16.08,6.662c5.822,0,11.642-2.221,16.083-6.662
	l167.704-167.705H72.212L239.919,499.518z"/>
<path style="fill:#D6E5F6;" d="M499.519,239.918l-59.732-59.731H72.212l-59.729,59.729c-8.884,8.882-8.884,23.282,0,32.164
	l59.729,59.732h367.576l59.732-59.731C508.4,263.201,508.4,248.802,499.519,239.918z"/>
<path style="fill:#DD512A;" d="M439.787,180.189L272.083,12.48C267.818,8.215,262.032,5.818,256,5.818v174.369h183.787V180.189z"/>
<path style="fill:#668E2F;" d="M256,506.181c5.822,0,11.642-2.221,16.083-6.662l167.704-167.705H256V506.181z"/>
<path style="fill:#BCD6F2;" d="M499.519,239.918l-59.732-59.731H256v151.624h183.788l59.732-59.731
	C508.4,263.201,508.4,248.802,499.519,239.918z"/>
<path style="fill:#8CB7E8;" d="M500.609,238.672c-64.475-37.163-140.768-58.284-221.866-61.614V28.566
	c0-12.561-10.185-22.744-22.744-22.744c-12.562,0-22.744,10.183-22.744,22.744v148.493c-81.098,3.327-157.39,24.446-221.866,61.605
	c-10.884,6.273-14.621,20.18-8.348,31.062c6.27,10.884,20.177,14.618,31.062,8.348c57.632-33.213,126.076-52.233,199.152-55.497
	v169.887c0,12.561,10.182,22.744,22.744,22.744c12.559,0,22.744-10.183,22.744-22.744V222.575
	c73.075,3.266,141.52,22.289,199.152,55.507c3.577,2.062,7.481,3.043,11.337,3.043c7.866,0,15.514-4.085,19.726-11.39
	C515.229,258.851,511.492,244.946,500.609,238.672z"/>
<path style="fill:#6398DE;" d="M500.609,238.672c-64.475-37.163-140.768-58.284-221.866-61.614V28.566
	c0-12.561-10.182-22.744-22.744-22.744v409.385c12.562-0.002,22.744-10.185,22.744-22.744V222.575
	c73.075,3.266,141.52,22.289,199.152,55.507c3.577,2.062,7.481,3.043,11.337,3.043c7.866,0,15.514-4.085,19.726-11.39
	C515.229,258.851,511.492,244.946,500.609,238.672z"/>
<path style="fill:#DF6246;" d="M363.055,467.354L272.08,376.38c-8.881-8.881-23.282-8.881-32.164,0l-90.975,90.975
	c-6.503,6.505-8.449,16.287-4.931,24.788c3.521,8.499,11.813,14.04,21.014,14.04h181.949c9.198,0,17.49-5.542,21.011-14.04
	C371.506,483.642,369.561,473.859,363.055,467.354z"/>
<path style="fill:#DD512A;" d="M363.055,467.354L272.08,376.38c-4.44-4.441-10.259-6.661-16.08-6.661v136.462h90.975
	c9.198,0,17.49-5.542,21.011-14.04C371.506,483.642,369.561,473.859,363.055,467.354z"/>
</svg>