<?xml version="1.0" encoding="iso-8859-1"?>
<!-- Uploaded to: SVG Repo, www.svgrepo.com, Generator: SVG Repo Mixer Tools -->
<svg height="800px" width="800px" version="1.1" id="Layer_1" xmlns="http://www.w3.org/2000/svg" xmlns:xlink="http://www.w3.org/1999/xlink" 
	 viewBox="0 0 512 512" xml:space="preserve">
<circle style="fill:#D6E5F6;" cx="256" cy="256" r="232.727"/>
<path style="fill:#BCD6F2;" d="M256,23.273v465.455c128.534,0,232.727-104.195,232.727-232.727S384.534,23.273,256,23.273z"/>
<g>
	<path style="fill:#8CB7E8;" d="M256,0C114.84,0,0,114.842,0,256s114.84,256,256,256c141.157,0,256-114.842,256-256S397.157,0,256,0
		z M256,465.455c-115.493,0-209.455-93.961-209.455-209.455S140.507,46.545,256,46.545S465.455,140.507,465.455,256
		S371.493,465.455,256,465.455z"/>
	<path style="fill:#8CB7E8;" d="M395.636,232.727h-57.555c-1.831-6.439-4.388-12.57-7.596-18.299l40.709-40.71
		c9.09-9.089,9.09-23.824,0-32.912c-9.087-9.089-23.824-9.089-32.912,0l-40.709,40.71c-5.727-3.209-11.861-5.769-18.3-7.598v-57.555
		c0-12.853-10.422-23.273-23.273-23.273c-12.854,0-23.273,10.42-23.273,23.273v57.555c-6.439,1.829-12.573,4.388-18.297,7.596
		l-40.712-40.71c-9.087-9.089-23.824-9.089-32.912,0c-9.087,9.089-9.087,23.824,0,32.912l40.709,40.709
		c-3.209,5.727-5.767,11.86-7.596,18.299h-57.555c-12.854,0-23.273,10.42-23.273,23.273s10.418,23.273,23.273,23.273h57.555
		c1.831,6.44,4.388,12.573,7.596,18.299l-40.709,40.709c-9.087,9.089-9.087,23.824,0,32.914c4.546,4.544,10.501,6.816,16.457,6.816
		c5.955,0,11.913-2.271,16.454-6.816l40.712-40.71c5.724,3.209,11.858,5.769,18.297,7.596v57.56
		c0,12.853,10.418,23.273,23.273,23.273c12.851,0,23.273-10.42,23.273-23.273v-57.555c6.439-1.829,12.573-4.389,18.3-7.598
		l40.709,40.712c4.546,4.544,10.501,6.816,16.457,6.816c5.955,0,11.913-2.271,16.454-6.816c9.09-9.089,9.09-23.823,0-32.914
		l-40.709-40.71c3.209-5.727,5.767-11.858,7.596-18.299h57.558c12.851,0,23.273-10.42,23.273-23.273
		S408.488,232.727,395.636,232.727z"/>
</g>
<g>
	<path style="fill:#6398DE;" d="M256,0v46.545c115.493,0,209.455,93.961,209.455,209.455S371.493,465.455,256,465.455V512
		c141.157,0,256-114.842,256-256S397.157,0,256,0z"/>
	<path style="fill:#6398DE;" d="M279.273,395.636v-57.555c6.439-1.829,12.573-4.389,18.3-7.598l40.709,40.712
		c4.546,4.544,10.501,6.816,16.457,6.816c5.955,0,11.913-2.271,16.454-6.816c9.09-9.089,9.09-23.823,0-32.914l-40.709-40.71
		c3.209-5.727,5.767-11.858,7.596-18.299h57.557c12.851,0,23.273-10.42,23.273-23.273s-10.422-23.273-23.273-23.273h-57.555
		c-1.831-6.439-4.388-12.57-7.596-18.299l40.709-40.71c9.09-9.089,9.09-23.824,0-32.912c-9.087-9.089-23.824-9.089-32.912,0
		l-40.709,40.71c-5.727-3.209-11.861-5.769-18.3-7.598v-57.555c0-12.853-10.422-23.273-23.273-23.273v325.818
		C268.851,418.909,279.273,408.489,279.273,395.636z"/>
</g>
</svg>