<svg xmlns="http://www.w3.org/2000/svg" xmlns:xlink="http://www.w3.org/1999/xlink" viewBox="0 0 74.375 85" fill="#fff" fill-rule="evenodd" stroke="#000" stroke-linecap="round" stroke-linejoin="round"><use xlink:href="#A" x="2.188" y="2.5"/><symbol id="A" overflow="visible"><g stroke="none"><path d="M0 44.032h70v19.881H0z" fill="#19486f"/><path d="M0 16.368h70v44.72H0z" fill="#2e73b8"/><path d="M70 51.054H58.231c-.773 0-1.4-.602-1.4-1.345v-8.071c0-.743.627-1.345 1.4-1.345s1.4.602 1.4 1.345v6.725H70zm0 6.887H48.225c-.773 0-1.4-.602-1.4-1.345V41.629c0-.743.627-1.345 1.4-1.345s1.4.602 1.4 1.345V55.25H70z"/><use xlink:href="#C"/><use xlink:href="#D"/><use xlink:href="#C" x="-19.628" y="9.245"/><use xlink:href="#D" x="-16.445" y="-13.954"/><use xlink:href="#D" x="-11.526" y="-3.632"/><use xlink:href="#C" x="-42.962" y="-13.954"/><path d="M2.529 50.964c0-1.818 1.524-3.282 3.416-3.282s3.416 1.464 3.416 3.282-1.524 3.282-3.416 3.282-3.416-1.464-3.416-3.282zm46.835-30.363c0-.805.674-1.453 1.512-1.453h14.719c.838 0 1.512.648 1.512 1.453v14.141c0 .805-.674 1.453-1.512 1.453H50.876c-.838 0-1.512-.648-1.512-1.453zM38.603 52.22a1.43 1.43 0 0 1-.989-.395L23.343 38.123a1.32 1.32 0 0 1-.411-.95V16.368h2.8v20.248l13.86 13.308c.4.385.519.963.303 1.465s-.726.83-1.292.831z"/><use xlink:href="#C" x="-43.148" y="-3.578"/><use xlink:href="#C" x="-41.02" y="9.335"/><path d="M29.764 61.088h-2.8v-9.712L14.28 39.181l1.979-1.901 13.505 12.976v10.833zM58.231 29.02H31.472c-.773 0-1.4-.602-1.4-1.345s.627-1.345 1.4-1.345h26.759c.773 0 1.4.602 1.4 1.345s-.627 1.345-1.4 1.345z"/><path d="M42.009 29.021c-.773 0-1.4-.602-1.4-1.345V16.368h2.8v11.308c0 .743-.627 1.345-1.4 1.345zM17.127 52.309a1.43 1.43 0 0 1-.989-.395l-11.2-10.761a1.32 1.32 0 0 1-.411-.951V16.368h2.8v23.315l10.789 10.33c.4.385.519.963.303 1.465s-.726.83-1.292.831z"/><path d="M17.211 29.02H5.955c-.773 0-1.4-.602-1.4-1.345s.627-1.345 1.4-1.345h11.256c.773 0 1.4.602 1.4 1.345s-.627 1.345-1.4 1.345zM4.555 50.964h2.8v10.124h-2.8zm25.403-8.39l7.134-6.855 1.98 1.902-7.134 6.855z"/><path d="M41.384 13.014c-.494-.002-.967-.192-1.316-.529a7.39 7.39 0 0 0-10.136 0c-.729.701-1.912.701-2.641 0s-.73-1.837 0-2.538c4.259-4.086 11.159-4.086 15.419 0a1.74 1.74 0 0 1 .401 1.95c-.288.668-.965 1.105-1.717 1.108zm5.068-4.869c-.494-.002-.968-.192-1.316-.529-5.602-5.368-14.669-5.368-20.272 0-.729.701-1.912.701-2.641 0s-.73-1.837 0-2.538c7.061-6.77 18.494-6.77 25.555 0a1.74 1.74 0 0 1 .401 1.95c-.288.668-.965 1.105-1.717 1.108zM35 73.122c-2.892.004-5.667-1.099-7.709-3.067-.73-.701-.73-1.837 0-2.538s1.912-.701 2.641 0a7.39 7.39 0 0 0 10.136 0c.729-.701 1.912-.701 2.641 0s.729 1.837 0 2.538c-2.042 1.967-4.817 3.071-7.709 3.067zM35 80c-4.792.009-9.39-1.818-12.777-5.075-.73-.701-.73-1.837 0-2.538s1.912-.701 2.641 0c5.603 5.368 14.669 5.368 20.272 0 .729-.701 1.912-.701 2.641 0s.729 1.837 0 2.538C44.391 78.182 39.793 80.008 35 80z" fill="#2e73b8"/></g></symbol><defs ><path id="C" d="M54.815 41.629c0-1.818 1.524-3.282 3.416-3.282s3.416 1.464 3.416 3.282-1.523 3.282-3.416 3.282-3.416-1.464-3.416-3.282z"/><path id="D" d="M44.809 41.629c0-1.818 1.523-3.282 3.416-3.282s3.416 1.464 3.416 3.282-1.523 3.282-3.416 3.282-3.416-1.464-3.416-3.282z"/></defs></svg>