<svg xmlns="http://www.w3.org/2000/svg" width="512" height="512" viewBox="0 0 512 512" style="color:#B9DCD2" class="h-full w-full"><rect width="512" height="512" x="0" y="0" rx="30" fill="transparent" stroke="transparent" stroke-width="0" stroke-opacity="100%" paint-order="stroke"/><svg xmlns="http://www.w3.org/2000/svg" width="512px" height="512px" viewBox="0 0 32 32" fill="#B9DCD2" x="0" y="0" role="img" style="display:inline-block;vertical-align:middle"><g fill="#B9DCD2"><path fill="currentColor" d="M26.2 4H5.8C4.8 4 4 4.8 4 5.7v20.5c0 .9.8 1.7 1.8 1.7h20.4c1 0 1.8-.8 1.8-1.7V5.7c0-.9-.8-1.7-1.8-1.7zM11.1 24.4H7.6V13h3.5v11.4zm-1.7-13c-1.1 0-2.1-.9-2.1-2.1c0-1.2.9-2.1 2.1-2.1c1.1 0 2.1.9 2.1 2.1s-1 2.1-2.1 2.1zm15.1 12.9H21v-5.6c0-1.3 0-3.1-1.9-3.1S17 17.1 17 18.5v5.7h-3.5V13h3.3v1.5h.1c.5-.9 1.7-1.9 3.4-1.9c3.6 0 4.3 2.4 4.3 5.5v6.2z"/></g></svg></svg>