<svg xmlns="http://www.w3.org/2000/svg" shape-rendering="geometricPrecision" text-rendering="geometricPrecision" image-rendering="optimizeQuality" fill-rule="evenodd" clip-rule="evenodd" viewBox="0 0 475 511.87"><path d="M12.07 402.3h450.86c6.64 0 12.07 5.5 12.07 12.07v85.43c0 6.57-5.5 12.07-12.07 12.07H12.07C5.5 511.87 0 506.44 0 499.8v-85.43c0-6.64 5.43-12.07 12.07-12.07zm10.76-60.79c-25.42 0-26.08-16.49-18.12-28.69l216.36-302.4C225.98 3.45 231.69-.02 237.4 0c5.71-.02 11.43 3.45 16.33 10.42l216.36 302.4c7.96 12.2 7.3 28.69-18.12 28.69H22.83z" fill="#b9dcd2"/></svg>