<?xml version="1.0" encoding="iso-8859-1"?>
<!-- Uploaded to: SVG Repo, www.svgrepo.com, Generator: SVG Repo Mixer Tools -->
<svg version="1.1" id="Layer_1" xmlns="http://www.w3.org/2000/svg" xmlns:xlink="http://www.w3.org/1999/xlink" 
	 viewBox="0 0 512 512" xml:space="preserve">
<path style="fill:#AFB9D2;" d="M497.572,138.714L259.228,45.078c-2.074-0.815-4.381-0.815-6.455,0L14.428,138.714
	c-3.379,1.326-5.6,4.586-5.6,8.216v29.294h494.345V146.93C503.172,143.299,500.951,140.04,497.572,138.714z"/>
<rect x="70.62" y="202.7" style="fill:#8F96AC;" width="370.76" height="256"/>
<g>
	<rect x="88.28" y="220.36" style="fill:#707487;" width="335.45" height="35.31"/>
	<rect x="88.28" y="432.22" style="fill:#707487;" width="335.45" height="17.655"/>
</g>
<rect x="8.828" y="176.22" style="fill:#AFB9D2;" width="494.35" height="35.31"/>
<g>
	<rect x="273.65" y="229.19" style="fill:#C7CFE2;" width="35.31" height="229.52"/>
	<rect x="203.03" y="229.19" style="fill:#C7CFE2;" width="35.31" height="229.52"/>
	<rect x="414.9" y="229.19" style="fill:#C7CFE2;" width="79.45" height="229.52"/>
	<rect x="132.41" y="229.19" style="fill:#C7CFE2;" width="35.31" height="229.52"/>
	<rect x="17.655" y="229.19" style="fill:#C7CFE2;" width="79.45" height="229.52"/>
</g>
<g>
	<path style="fill:#FF6464;" d="M72.634,393.724L57.379,381.52l-15.255,12.204c-2.746,2.197-6.814,0.242-6.814-3.275v-161.26h44.138
		v161.26C79.448,393.965,75.38,395.921,72.634,393.724z"/>
	<path style="fill:#FF6464;" d="M469.876,393.724l-15.255-12.204l-15.255,12.204c-2.746,2.197-6.814,0.242-6.814-3.275v-161.26
		h44.138v161.26C476.69,393.965,472.621,395.921,469.876,393.724z"/>
</g>
<rect x="344.28" y="229.19" style="fill:#C7CFE2;" width="35.31" height="229.52"/>
<g>
	<path style="fill:#AFB9D2;" d="M176.552,458.706h-52.966v-22.069c0-2.438,1.976-4.414,4.414-4.414h44.138
		c2.438,0,4.414,1.976,4.414,4.414V458.706z"/>
	<path style="fill:#AFB9D2;" d="M105.931,458.706H8.828v-22.069c0-2.438,1.976-4.414,4.414-4.414h88.276
		c2.438,0,4.414,1.976,4.414,4.414v22.069H105.931z"/>
	<path style="fill:#AFB9D2;" d="M503.172,458.706h-97.103v-22.069c0-2.438,1.976-4.414,4.414-4.414h88.276
		c2.438,0,4.414,1.976,4.414,4.414v22.069H503.172z"/>
	<path style="fill:#AFB9D2;" d="M317.793,458.706h-52.966v-22.069c0-2.438,1.976-4.414,4.414-4.414h44.138
		c2.438,0,4.414,1.976,4.414,4.414V458.706z"/>
	<path style="fill:#AFB9D2;" d="M388.414,458.706h-52.966v-22.069c0-2.438,1.976-4.414,4.414-4.414H384
		c2.438,0,4.414,1.976,4.414,4.414V458.706z"/>
	<path style="fill:#AFB9D2;" d="M247.172,458.706h-52.966v-22.069c0-2.438,1.976-4.414,4.414-4.414h44.138
		c2.438,0,4.414,1.976,4.414,4.414V458.706z"/>
	<path style="fill:#AFB9D2;" d="M335.448,211.533h52.966v22.069c0,2.438-1.976,4.414-4.414,4.414h-44.138
		c-2.438,0-4.414-1.976-4.414-4.414V211.533z"/>
	<path style="fill:#AFB9D2;" d="M406.069,211.533h97.103v22.069c0,2.438-1.976,4.414-4.414,4.414h-88.276
		c-2.438,0-4.414-1.976-4.414-4.414v-22.069H406.069z"/>
	<path style="fill:#AFB9D2;" d="M8.828,211.533h97.103v22.069c0,2.438-1.976,4.414-4.414,4.414H13.241
		c-2.438,0-4.414-1.976-4.414-4.414v-22.069H8.828z"/>
	<path style="fill:#AFB9D2;" d="M194.207,211.533h52.966v22.069c0,2.438-1.976,4.414-4.414,4.414h-44.138
		c-2.438,0-4.414-1.976-4.414-4.414V211.533z"/>
	<path style="fill:#AFB9D2;" d="M123.586,211.533h52.966v22.069c0,2.438-1.976,4.414-4.414,4.414H128
		c-2.438,0-4.414-1.976-4.414-4.414V211.533z"/>
	<path style="fill:#AFB9D2;" d="M264.828,211.533h52.966v22.069c0,2.438-1.976,4.414-4.414,4.414h-44.138
		c-2.438,0-4.414-1.976-4.414-4.414V211.533z"/>
</g>
<path style="fill:#8F96AC;" d="M256,62.778L52.804,142.605c-3.799,1.493-2.731,7.135,1.352,7.135h403.689
	c4.082,0,5.151-5.643,1.352-7.135L256,62.778z"/>
<path style="fill:#707487;" d="M54.155,149.74h25.427L256,80.433l176.418,69.308h25.427c4.082,0,5.15-5.643,1.352-7.135L256,62.778
	L52.804,142.605C49.005,144.098,50.073,149.74,54.155,149.74z"/>
<g>
	<rect x="35.31" y="238.01" style="fill:#D2555A;" width="44.14" height="17.655"/>
	<rect x="432.55" y="238.01" style="fill:#D2555A;" width="44.14" height="17.655"/>
</g>
<g>
	<path style="fill:#8F96AC;" d="M507.586,467.533H4.414c-2.438,0-4.414-1.976-4.414-4.414v-8.828c0-2.438,1.976-4.414,4.414-4.414
		h503.172c2.438,0,4.414,1.976,4.414,4.414v8.828C512,465.558,510.024,467.533,507.586,467.533z"/>
	<path style="fill:#8F96AC;" d="M507.586,185.051H4.414c-2.438,0-4.414-1.976-4.414-4.414v-8.828c0-2.438,1.976-4.414,4.414-4.414
		h503.172c2.438,0,4.414,1.976,4.414,4.414v8.828C512,183.075,510.024,185.051,507.586,185.051z"/>
	<path style="fill:#8F96AC;" d="M507.586,220.361H4.414c-2.438,0-4.414-1.976-4.414-4.414v-8.828c0-2.438,1.976-4.414,4.414-4.414
		h503.172c2.438,0,4.414,1.976,4.414,4.414v8.828C512,218.386,510.024,220.361,507.586,220.361z"/>
</g>
</svg>