<svg xmlns="http://www.w3.org/2000/svg" width="512" height="512" viewBox="0 0 512 512" style="color:#B9DCD2" class="h-full w-full"><rect width="512" height="512" x="0" y="0" rx="30" fill="transparent" stroke="transparent" stroke-width="0" stroke-opacity="100%" paint-order="stroke"/><svg xmlns="http://www.w3.org/2000/svg" width="512px" height="512px" viewBox="0 0 32 32" fill="#B9DCD2" x="0" y="0" role="img" style="display:inline-block;vertical-align:middle"><g fill="#B9DCD2"><path fill="currentColor" d="m3.584 5.002l1.414-1.414l3.416 3.414L7 8.417zm19.997 19.99l1.415-1.414l3.414 3.416l-1.414 1.414zM11 2h2v4h-2zm-9 9h4v2H2zm24 8h4v2h-4zm-7 7h2v4h-2zm-2.42-4.93l-3.71 3.72a4 4 0 1 1-5.66-5.66l3.72-3.72L9.51 14L5.8 17.72a6 6 0 0 0-.06 8.54A6 6 0 0 0 10 28a6.07 6.07 0 0 0 4.32-1.8L18 22.49zm-1.17-10.14l3.72-3.72a4 4 0 1 1 5.66 5.66l-3.72 3.72L22.49 18l3.71-3.72a6 6 0 0 0 .06-8.54A6 6 0 0 0 22 4a6.07 6.07 0 0 0-4.32 1.8L14 9.51z"/></g></svg></svg>