<?xml version="1.0" encoding="iso-8859-1"?>
<!-- Uploaded to: SVG Repo, www.svgrepo.com, Generator: SVG Repo Mixer Tools -->
<svg height="800px" width="800px" version="1.1" id="Layer_1" xmlns="http://www.w3.org/2000/svg" xmlns:xlink="http://www.w3.org/1999/xlink" 
	 viewBox="0 0 512 512" xml:space="preserve">
<path style="fill:#87BDF4;" d="M512,256c0,141.241-114.759,256-256,256S0,397.241,0,256S114.759,0,256,0S512,114.759,512,256"/>
<path style="fill:#E6EEF4;" d="M256,326.621c-63.559,0-114.759,51.2-114.759,114.759v43.255C175.669,502.29,214.51,512,256,512
	s80.331-9.71,114.759-27.366v-43.255C370.759,377.821,319.559,326.621,256,326.621"/>
<path style="fill:#CAD4DB;" d="M256,326.621c35.31,0,67.09,15.89,88.276,41.49v-41.49c0-38.841-31.779-70.621-70.621-70.621h-35.31
	c-38.841,0-70.621,31.779-70.621,70.621v41.49C188.91,342.51,220.69,326.621,256,326.621"/>
<path style="fill:#E6EEF4;" d="M238.345,256h35.31c16.772,0,31.779,6.179,44.138,15.89V256v-8.828
	c0-34.428-27.365-61.793-61.793-61.793s-61.793,27.366-61.793,61.793V256v15.89C206.566,262.179,221.572,256,238.345,256"/>
<g>
	<path style="fill:#CAD4DB;" d="M256,185.379c9.71,0,18.538,1.766,26.483,6.179v-50.317c0-15.007-11.476-26.483-26.483-26.483
		s-26.483,11.476-26.483,26.483v50.317C237.462,187.145,246.29,185.379,256,185.379"/>
	<path style="fill:#CAD4DB;" d="M256,88.276c-5.297,0-8.828-3.531-8.828-8.828V35.31c0-5.297,3.531-8.828,8.828-8.828
		s8.828,3.531,8.828,8.828v44.138C264.828,84.745,261.297,88.276,256,88.276"/>
</g>
<path style="fill:#E6EEF4;" d="M256,114.759c7.062,0,13.241,2.648,17.655,7.062V97.103c0-9.71-7.945-17.655-17.655-17.655
	c-9.71,0-17.655,7.945-17.655,17.655v24.717C242.759,117.407,248.938,114.759,256,114.759"/>
<g>
	<polygon style="fill:#CAD4DB;" points="141.241,467.862 203.034,467.862 203.034,450.207 141.241,450.207 	"/>
	<polygon style="fill:#CAD4DB;" points="308.966,467.862 370.759,467.862 370.759,450.207 308.966,450.207 	"/>
	<path style="fill:#CAD4DB;" d="M264.828,361.931c0,5.297-3.531,8.828-8.828,8.828s-8.828-3.531-8.828-8.828
		s3.531-8.828,8.828-8.828S264.828,356.634,264.828,361.931"/>
</g>
<path style="fill:#E6EEF4;" d="M264.828,291.31c0,5.297-3.531,8.828-8.828,8.828s-8.828-3.531-8.828-8.828s3.531-8.828,8.828-8.828
	C261.297,282.483,264.828,286.014,264.828,291.31"/>
<path style="fill:#CAD4DB;" d="M317.793,379.586c0,5.297-3.531,8.828-8.828,8.828s-8.828-3.531-8.828-8.828s3.531-8.828,8.828-8.828
	S317.793,374.29,317.793,379.586"/>
<path style="fill:#E6EEF4;" d="M308.966,300.138c0,5.297-3.531,8.828-8.828,8.828s-8.828-3.531-8.828-8.828s3.531-8.828,8.828-8.828
	S308.966,294.841,308.966,300.138"/>
<g>
	<path style="fill:#CAD4DB;" d="M291.31,229.517c0,5.297-3.531,8.828-8.828,8.828s-8.828-3.531-8.828-8.828s3.531-8.828,8.828-8.828
		C287.779,220.69,291.31,224.221,291.31,229.517"/>
	<path style="fill:#CAD4DB;" d="M264.828,211.862c0,5.297-3.531,8.828-8.828,8.828s-8.828-3.531-8.828-8.828
		s3.531-8.828,8.828-8.828S264.828,206.566,264.828,211.862"/>
</g>
<path style="fill:#E6EEF4;" d="M264.828,158.897c0,5.297-3.531,8.828-8.828,8.828s-8.828-3.531-8.828-8.828s3.531-8.828,8.828-8.828
	S264.828,153.6,264.828,158.897"/>
<g>
	<path style="fill:#CAD4DB;" d="M238.345,229.517c0,5.297-3.531,8.828-8.828,8.828s-8.828-3.531-8.828-8.828
		s3.531-8.828,8.828-8.828S238.345,224.221,238.345,229.517"/>
	<path style="fill:#CAD4DB;" d="M344.276,423.724c0,5.297-3.531,8.828-8.828,8.828s-8.828-3.531-8.828-8.828
		s3.531-8.828,8.828-8.828S344.276,418.428,344.276,423.724"/>
	<path style="fill:#CAD4DB;" d="M203.034,388.414c-5.297,0-8.828-3.531-8.828-8.828s3.531-8.828,8.828-8.828
		s8.828,3.531,8.828,8.828S208.331,388.414,203.034,388.414"/>
</g>
<path style="fill:#E6EEF4;" d="M211.862,308.966c-5.297,0-8.828-3.531-8.828-8.828s3.531-8.828,8.828-8.828s8.828,3.531,8.828,8.828
	S217.159,308.966,211.862,308.966"/>
<g>
	<path style="fill:#CAD4DB;" d="M176.552,432.552c-5.297,0-8.828-3.531-8.828-8.828s3.531-8.828,8.828-8.828
		s8.828,3.531,8.828,8.828C185.379,429.021,181.848,432.552,176.552,432.552"/>
	<path style="fill:#CAD4DB;" d="M256,397.241c-29.131,0-52.966,23.835-52.966,52.966v56.497C219.807,510.234,237.462,512,256,512
		s36.193-1.766,52.966-5.297v-56.497C308.966,421.076,285.131,397.241,256,397.241"/>
</g>
<path style="fill:#E6EEF4;" d="M256,441.379c-9.71,0-17.655,7.945-17.655,17.655v52.083c6.179,0,11.476,0.883,17.655,0.883
	c6.179,0,11.476,0,17.655-0.883v-52.083C273.655,449.324,265.71,441.379,256,441.379"/>
<path style="fill:#FFFFFF;" d="M505.821,201.269c-8.828-41.49-27.366-78.566-53.848-110.345
	c-13.241,3.531-24.717,14.124-24.717,40.607c0,5.297-7.062,7.945-12.359,7.945h-2.648c-13.241,0-26.483,7.945-30.014,21.186
	c-7.062,21.186,8.828,41.49,30.014,41.49h85.628C499.641,203.034,503.172,202.152,505.821,201.269"/>
</svg>