<?xml version="1.0" encoding="iso-8859-1"?>
<!-- Uploaded to: SVG Repo, www.svgrepo.com, Generator: SVG Repo Mixer Tools -->
<svg height="800px" width="800px" version="1.1" id="Layer_1" xmlns="http://www.w3.org/2000/svg" xmlns:xlink="http://www.w3.org/1999/xlink" 
	 viewBox="0 0 512 512" xml:space="preserve">
<path style="fill:#87BDF4;" d="M512,256c0,141.241-114.759,256-256,256S0,397.241,0,256S114.759,0,256,0S512,114.759,512,256"/>
<path style="fill:#AF1000;" d="M512,247.172c-38.841,0-70.621-43.255-70.621-97.103c0-5.297-3.531-8.828-8.828-8.828
	s-8.828,3.531-8.828,8.828c0,63.559,39.724,114.759,88.276,114.759c0-2.648,0-6.179,0-8.828C512,253.352,512,249.821,512,247.172"/>
<path style="fill:#D3291F;" d="M52.966,379.586c-5.297,0-8.828-3.531-8.828-8.828V225.103c0-5.297,3.531-8.828,8.828-8.828
	s8.828,3.531,8.828,8.828v145.655C61.793,376.055,58.262,379.586,52.966,379.586"/>
<path style="fill:#AF1000;" d="M88.276,88.276c-5.297,0-8.828,3.531-8.828,8.828c0,81.214-36.193,150.069-79.448,150.069
	c0,2.648,0,6.179,0,8.828c0,2.648,0,6.179,0,8.828c54.731,0,97.103-74.152,97.103-167.724
	C97.103,91.807,93.572,88.276,88.276,88.276"/>
<g>
	<path style="fill:#D3291F;" d="M238.345,379.586c-5.297,0-8.828-3.531-8.828-8.828V257.766c0-5.297,3.531-8.828,8.828-8.828
		s8.828,3.531,8.828,8.828v112.993C247.172,376.055,243.641,379.586,238.345,379.586"/>
	<path style="fill:#D3291F;" d="M308.966,379.586c-5.297,0-8.828-3.531-8.828-8.828v-97.103c0-5.297,3.531-8.828,8.828-8.828
		s8.828,3.531,8.828,8.828v97.103C317.793,376.055,314.262,379.586,308.966,379.586"/>
	<path style="fill:#D3291F;" d="M273.655,379.586c-5.297,0-8.828-3.531-8.828-8.828v-88.276c0-5.297,3.531-8.828,8.828-8.828
		s8.828,3.531,8.828,8.828v88.276C282.483,376.055,278.952,379.586,273.655,379.586"/>
</g>
<g>
	<path style="fill:#AF1000;" d="M282.483,291.31c-54.731,0-97.103-85.628-97.103-194.207c0-5.297,3.531-8.828,8.828-8.828
		s8.828,3.531,8.828,8.828c0,95.338,36.193,176.552,79.448,176.552c5.297,0,8.828,3.531,8.828,8.828
		C291.31,287.779,287.779,291.31,282.483,291.31"/>
	<path style="fill:#AF1000;" d="M282.483,291.31c-5.297,0-8.828-3.531-8.828-8.828s3.531-8.828,8.828-8.828
		c33.545,0,61.793-56.497,61.793-123.586c0-5.297,3.531-8.828,8.828-8.828s8.828,3.531,8.828,8.828
		C361.931,229.517,326.621,291.31,282.483,291.31"/>
</g>
<polygon style="fill:#D3291F;" points="203.034,379.586 79.448,379.586 79.448,79.448 123.586,79.448 123.586,105.931 
	158.897,105.931 158.897,79.448 203.034,79.448 "/>
<g>
	<path style="fill:#AF1000;" d="M123.586,176.552h35.31v-8.828h-8.828v-8.828h-17.655v8.828h-8.828v8.828H123.586z M176.552,194.207
		h-70.621v-44.138h8.828v-8.828h52.966v8.828h8.828v44.138H176.552z"/>
	<path style="fill:#AF1000;" d="M123.586,256h35.31v-8.828h-8.828v-8.828h-17.655v8.828h-8.828V256H123.586z M176.552,273.655
		h-70.621v-44.138h8.828v-8.828h52.966v8.828h8.828v44.138H176.552z"/>
	<path style="fill:#AF1000;" d="M123.586,335.448h35.31v-8.828h-8.828v-8.828h-17.655v8.828h-8.828v8.828H123.586z M176.552,353.103
		h-70.621v-44.138h8.828v-8.828h52.966v8.828h8.828v44.138H176.552z"/>
</g>
<polygon style="fill:#D3291F;" points="441.379,379.586 344.276,379.586 344.276,141.241 388.414,141.241 388.414,167.724 
	397.241,167.724 397.241,141.241 441.379,141.241 "/>
<g>
	<path style="fill:#877E6C;" d="M353.103,492.579c37.076-15.007,69.738-38.841,96.221-68.855h-96.221V492.579z"/>
	<path style="fill:#877E6C;" d="M194.207,504.055v-80.331H62.676C97.103,462.566,142.124,491.697,194.207,504.055"/>
</g>
<g>
	<path style="fill:#A89A82;" d="M158.897,450.207h-35.31v8.828h-8.828v10.593c8.828,6.179,18.538,11.476,28.248,15.89h24.717
		v-26.483h-8.828v-8.828H158.897z"/>
	<path style="fill:#A89A82;" d="M379.586,476.69h6.179c7.062-4.414,14.124-8.828,20.303-13.241v-13.241h-26.483v26.482H379.586z"/>
</g>
<path style="fill:#AF1000;" d="M62.676,423.724h386.648c14.124-15.89,25.6-33.545,35.31-52.966H27.366
	C37.076,390.179,48.552,407.835,62.676,423.724"/>
<g>
	<polygon style="fill:#D3291F;" points="105.931,423.724 123.586,423.724 123.586,370.759 105.931,370.759 	"/>
	<polygon style="fill:#D3291F;" points="158.897,423.724 176.552,423.724 176.552,370.759 158.897,370.759 	"/>
	<polygon style="fill:#D3291F;" points="211.862,423.724 229.517,423.724 229.517,370.759 211.862,370.759 	"/>
	<polygon style="fill:#D3291F;" points="264.828,423.724 282.483,423.724 282.483,370.759 264.828,370.759 	"/>
	<polygon style="fill:#D3291F;" points="317.793,423.724 335.448,423.724 335.448,370.759 317.793,370.759 	"/>
	<polygon style="fill:#D3291F;" points="370.759,423.724 388.414,423.724 388.414,370.759 370.759,370.759 	"/>
	<polygon style="fill:#D3291F;" points="423.724,423.724 441.379,423.724 441.379,370.759 423.724,370.759 	"/>
	<path style="fill:#D3291F;" d="M52.966,370.759v40.607c3.531,4.414,6.179,7.945,9.71,12.359h7.945v-52.966H52.966z"/>
</g>
<g>
	<polygon style="fill:#AF1000;" points="370.759,238.345 414.897,238.345 414.897,194.207 370.759,194.207 	"/>
	<polygon style="fill:#AF1000;" points="370.759,291.31 414.897,291.31 414.897,247.172 370.759,247.172 	"/>
	<polygon style="fill:#AF1000;" points="370.759,344.276 414.897,344.276 414.897,300.138 370.759,300.138 	"/>
</g>
</svg>