<?xml version="1.0" encoding="iso-8859-1"?>
<!-- Uploaded to: SVG Repo, www.svgrepo.com, Generator: SVG Repo Mixer Tools -->
<svg version="1.1" id="Capa_1" xmlns="http://www.w3.org/2000/svg" xmlns:xlink="http://www.w3.org/1999/xlink" 
	 viewBox="0 0 59 59" xml:space="preserve">
<line style="fill:none;stroke:#38454F;stroke-width:2;stroke-linecap:round;stroke-miterlimit:10;" x1="22" y1="23" x2="22" y2="58"/>
<rect x="20" y="11" style="fill:#3B97D3;" width="4" height="12"/>
<path style="fill:#556080;" d="M24,11h-4V2c0-1.105,0.895-2,2-2h0c1.105,0,2,0.895,2,2V11z"/>
<path style="fill:#BDC3C7;" d="M9.922,14.001l-0.109-0.002c-0.552-0.028-0.977-0.497-0.949-1.049
	c0.027-0.553,0.513-0.979,1.048-0.949c0.191,0,0.421-0.036,0.673-0.105c0.533-0.144,1.082,0.168,1.228,0.701
	c0.146,0.533-0.168,1.083-0.702,1.229C10.686,13.941,10.285,14.001,9.922,14.001z M13.548,12.57c-0.331,0-0.655-0.164-0.845-0.465
	c-0.296-0.466-0.158-1.084,0.309-1.38c0.255-0.162,0.516-0.339,0.78-0.528c0.447-0.324,1.073-0.22,1.395,0.229
	c0.322,0.448,0.219,1.073-0.229,1.396c-0.296,0.213-0.588,0.411-0.875,0.593C13.917,12.521,13.731,12.57,13.548,12.57z
	 M8.707,11.777c-0.083,0-0.168-0.011-0.253-0.032c-0.534-0.14-0.854-0.686-0.715-1.22c0.088-0.337,0.215-0.701,0.377-1.083
	c0.216-0.507,0.803-0.745,1.312-0.528c0.508,0.216,0.745,0.803,0.529,1.312c-0.125,0.292-0.219,0.563-0.282,0.804
	C9.557,11.479,9.151,11.777,8.707,11.777z M16.691,10.105c-0.268,0-0.536-0.107-0.732-0.319c-0.376-0.404-0.353-1.037,0.052-1.413
	c0.231-0.216,0.463-0.438,0.692-0.668c0.39-0.393,1.023-0.392,1.415-0.002c0.391,0.391,0.392,1.023,0.001,1.414
	c-0.248,0.249-0.497,0.489-0.747,0.721C17.18,10.017,16.935,10.105,16.691,10.105z M10.54,8.245c-0.201,0-0.403-0.061-0.58-0.186
	c-0.45-0.321-0.554-0.945-0.234-1.395c0.197-0.277,0.407-0.558,0.629-0.839c0.343-0.434,0.972-0.508,1.405-0.166
	c0.434,0.342,0.507,0.971,0.166,1.404c-0.202,0.256-0.392,0.511-0.571,0.761C11.16,8.1,10.853,8.245,10.54,8.245z M13.876,4.875
	l-1.45-1.379c0.005-0.005,0.045-0.045,0.05-0.05c0.219-0.22,0.456-0.449,0.693-0.67c0.404-0.376,1.037-0.355,1.413,0.05
	c0.376,0.404,0.354,1.037-0.05,1.413C14.314,4.444,14.095,4.656,13.876,4.875z M16.166,2.599c-0.311,0-0.617-0.145-0.813-0.416
	C15.03,1.735,15.132,1.11,15.58,0.787c0.294-0.212,0.585-0.41,0.871-0.594c0.466-0.3,1.083-0.163,1.382,0.302
	s0.163,1.084-0.302,1.382c-0.256,0.164-0.518,0.343-0.782,0.533C16.572,2.537,16.368,2.599,16.166,2.599z"/>
<line style="fill:none;stroke:#38454F;stroke-width:2;stroke-linecap:round;stroke-miterlimit:10;" x1="37" y1="23" x2="37" y2="58"/>
<rect x="35" y="11" style="fill:#3B97D3;" width="4" height="12"/>
<path style="fill:#556080;" d="M35,11h4V2c0-1.105-0.895-2-2-2h0c-1.105,0-2,0.895-2,2V11z"/>
<path style="fill:#BDC3C7;" d="M49.078,14.001c-0.362,0-0.763-0.06-1.19-0.176c-0.533-0.146-0.847-0.695-0.702-1.229
	c0.146-0.532,0.698-0.842,1.228-0.701c0.252,0.069,0.482,0.105,0.664,0.105c0.542,0,1.016,0.433,1.029,0.975
	s-0.378,0.996-0.92,1.023C49.17,14,49.094,14.001,49.078,14.001z M45.452,12.57c-0.183,0-0.369-0.05-0.535-0.155
	c-0.287-0.182-0.579-0.38-0.875-0.593c-0.449-0.322-0.551-0.947-0.23-1.396c0.321-0.449,0.946-0.554,1.396-0.229
	c0.264,0.189,0.525,0.366,0.78,0.528c0.466,0.296,0.604,0.914,0.309,1.38C46.107,12.406,45.783,12.57,45.452,12.57z M50.293,11.777
	c-0.444,0-0.85-0.298-0.967-0.748c-0.063-0.241-0.158-0.512-0.282-0.804c-0.216-0.509,0.021-1.096,0.529-1.312
	c0.51-0.217,1.096,0.02,1.312,0.528c0.162,0.382,0.289,0.746,0.377,1.083c0.139,0.534-0.181,1.08-0.715,1.22
	C50.461,11.767,50.376,11.777,50.293,11.777z M42.309,10.105c-0.244,0-0.488-0.089-0.681-0.268c-0.25-0.231-0.499-0.472-0.747-0.721
	c-0.39-0.391-0.389-1.023,0.001-1.414c0.392-0.389,1.024-0.39,1.415,0.002c0.229,0.229,0.461,0.452,0.692,0.668
	c0.405,0.376,0.428,1.009,0.052,1.413C42.844,9.998,42.577,10.105,42.309,10.105z M48.46,8.245c-0.313,0-0.62-0.146-0.815-0.42
	c-0.179-0.25-0.369-0.505-0.571-0.761c-0.342-0.434-0.268-1.063,0.166-1.404s1.063-0.268,1.405,0.166
	c0.222,0.281,0.432,0.562,0.629,0.839c0.32,0.449,0.216,1.073-0.234,1.395C48.863,8.185,48.661,8.245,48.46,8.245z M45.841,5.194
	c-0.246,0-0.491-0.093-0.682-0.284l0.707-0.707L45.14,4.892c-0.235-0.235-0.454-0.447-0.674-0.652
	c-0.404-0.376-0.426-1.009-0.05-1.413c0.376-0.403,1.01-0.426,1.413-0.05c0.237,0.221,0.474,0.45,0.71,0.687
	c0.39,0.391,0.407,1.04,0.016,1.431C46.356,5.093,46.098,5.194,45.841,5.194z M42.834,2.599c-0.202,0-0.407-0.062-0.583-0.188
	c-0.264-0.19-0.525-0.369-0.782-0.533c-0.465-0.298-0.6-0.917-0.302-1.382s0.917-0.601,1.382-0.302
	c0.286,0.184,0.576,0.382,0.871,0.594c0.448,0.323,0.55,0.948,0.227,1.396C43.452,2.454,43.145,2.599,42.834,2.599z"/>
<g>
	<path style="fill:#8697CB;" d="M25,54h-3h-3c-0.552,0-1,0.447-1,1s0.448,1,1,1h3h3c0.552,0,1-0.447,1-1S25.552,54,25,54z"/>
	<path style="fill:#8697CB;" d="M40,54h-3h-3c-0.552,0-1,0.447-1,1s0.448,1,1,1h3h3c0.552,0,1-0.447,1-1S40.552,54,40,54z"/>
</g>
<line style="fill:none;stroke:#38454F;stroke-width:2;stroke-linecap:round;stroke-miterlimit:10;" x1="21" y1="44" x2="23" y2="44"/>
<line style="fill:none;stroke:#38454F;stroke-width:2;stroke-linecap:round;stroke-miterlimit:10;" x1="21" y1="33" x2="23" y2="33"/>
<line style="fill:none;stroke:#38454F;stroke-width:2;stroke-linecap:round;stroke-miterlimit:10;" x1="36" y1="44" x2="38" y2="44"/>
<line style="fill:none;stroke:#38454F;stroke-width:2;stroke-linecap:round;stroke-miterlimit:10;" x1="36" y1="33" x2="38" y2="33"/>
</svg>