<?xml version="1.0" encoding="iso-8859-1"?>
<!-- Uploaded to: SVG Repo, www.svgrepo.com, Generator: SVG Repo Mixer Tools -->
<svg height="800px" width="800px" version="1.1" id="Layer_1" xmlns="http://www.w3.org/2000/svg" xmlns:xlink="http://www.w3.org/1999/xlink" 
	 viewBox="0 0 512 512" xml:space="preserve">
<path style="fill:#87BDF4;" d="M512,256c0,141.241-114.759,256-256,256S0,397.241,0,256S114.759,0,256,0S512,114.759,512,256"/>
<g>
	<path style="fill:#877E6C;" d="M353.103,492.579c33.545-14.124,63.559-34.428,88.276-60.028v-220.69h-88.276V492.579z"/>
	<path style="fill:#877E6C;" d="M273.655,88.276h-44.138v123.586h-35.31v-88.276h-44.138v88.276H61.793v210.979
		C108.579,477.572,178.317,512,256,512c18.538,0,36.193-1.766,52.966-5.297V211.862h-35.31V88.276H273.655z"/>
</g>
<path style="fill:#BCAE91;" d="M229.517,510.234C238.345,511.117,247.172,512,256,512c6.179,0,11.476,0,17.655-0.883V88.276h-44.138
	V510.234z"/>
<g>
	<polygon style="fill:#51493B;" points="194.207,150.069 229.517,150.069 229.517,132.414 194.207,132.414 	"/>
	<polygon style="fill:#51493B;" points="273.655,150.069 308.966,150.069 308.966,132.414 273.655,132.414 	"/>
	<polygon style="fill:#51493B;" points="194.207,291.31 229.517,291.31 229.517,256 194.207,256 	"/>
	<polygon style="fill:#51493B;" points="194.207,361.931 229.517,361.931 229.517,326.621 194.207,326.621 	"/>
	<polygon style="fill:#51493B;" points="194.207,432.552 229.517,432.552 229.517,397.241 194.207,397.241 	"/>
	<polygon style="fill:#51493B;" points="194.207,503.172 229.517,503.172 229.517,467.862 194.207,467.862 	"/>
	<polygon style="fill:#51493B;" points="273.655,291.31 308.966,291.31 308.966,256 273.655,256 	"/>
	<polygon style="fill:#51493B;" points="273.655,361.931 308.966,361.931 308.966,326.621 273.655,326.621 	"/>
	<polygon style="fill:#51493B;" points="273.655,432.552 308.966,432.552 308.966,397.241 273.655,397.241 	"/>
	<polygon style="fill:#51493B;" points="273.655,503.172 308.966,503.172 308.966,467.862 273.655,467.862 	"/>
	<path style="fill:#51493B;" d="M264.828,88.276h-26.483V48.552c0-7.062,6.179-13.241,13.241-13.241
		c7.062,0,13.241,6.179,13.241,13.241v39.724H264.828z"/>
</g>
<g>
	<path style="fill:#BCAE91;" d="M308.966,506.703c15.007-3.531,30.014-7.945,44.138-13.241V123.586h-44.138V506.703z"/>
	<path style="fill:#BCAE91;" d="M150.069,489.048c14.124,6.179,29.131,11.476,44.138,15.007V123.586h-44.138V489.048z"/>
	<path style="fill:#BCAE91;" d="M397.241,167.724c-5.297,0-8.828,3.531-8.828,8.828v293.076c0,1.766,0.883,3.531,1.766,4.414
		c5.297-3.531,10.593-7.062,15.89-10.593V176.552C406.069,171.255,402.538,167.724,397.241,167.724"/>
	<path style="fill:#BCAE91;" d="M105.931,167.724c-5.297,0-8.828,3.531-8.828,8.828v279.834c5.297,4.414,10.593,7.945,15.89,11.476
		c0.883-1.766,1.766-3.531,1.766-5.297V176.552C114.759,171.255,111.228,167.724,105.931,167.724"/>
</g>
</svg>