<?xml version="1.0" encoding="iso-8859-1"?>
<!-- Uploaded to: SVG Repo, www.svgrepo.com, Generator: SVG Repo Mixer Tools -->
<svg fill="#000000" height="800px" width="800px" version="1.1" id="Layer_1" xmlns="http://www.w3.org/2000/svg" xmlns:xlink="http://www.w3.org/1999/xlink" 
	 viewBox="0 0 512.853 512.853" xml:space="preserve">
<g transform="translate(1 1)">
	<g>
		<g>
			<path d="M58.733,25.027C39.96,25.027,24.6,40.387,24.6,59.16s15.36,34.133,34.133,34.133s34.133-15.36,34.133-34.133
				S77.507,25.027,58.733,25.027z M58.733,76.227c-9.387,0-17.067-7.68-17.067-17.067s7.68-17.067,17.067-17.067
				S75.8,49.773,75.8,59.16S68.12,76.227,58.733,76.227z"/>
			<path d="M135.533,25.027c-18.773,0-34.133,15.36-34.133,34.133s15.36,34.133,34.133,34.133c18.773,0,34.133-15.36,34.133-34.133
				S154.307,25.027,135.533,25.027z M135.533,76.227c-9.387,0-17.067-7.68-17.067-17.067s7.68-17.067,17.067-17.067
				S152.6,49.773,152.6,59.16S144.92,76.227,135.533,76.227z"/>
			<path d="M212.333,25.027c-18.773,0-34.133,15.36-34.133,34.133s15.36,34.133,34.133,34.133c18.773,0,34.133-15.36,34.133-34.133
				S231.107,25.027,212.333,25.027z M212.333,76.227c-9.387,0-17.067-7.68-17.067-17.067s7.68-17.067,17.067-17.067
				c9.387,0,17.067,7.68,17.067,17.067S221.72,76.227,212.333,76.227z"/>
			<path d="M161.133,161.56H50.2c-5.12,0-8.533,3.413-8.533,8.533s3.413,8.533,8.533,8.533h110.933c5.12,0,8.533-3.413,8.533-8.533
				S166.253,161.56,161.133,161.56z"/>
			<path d="M280.6,178.627c5.12,0,8.533-3.413,8.533-8.533s-3.413-8.533-8.533-8.533h-85.333c-5.12,0-8.533,3.413-8.533,8.533
				s3.413,8.533,8.533,8.533H280.6z"/>
			<path d="M331.8,178.627c5.12,0,8.533-3.413,8.533-8.533s-3.413-8.533-8.533-8.533h-17.067c-5.12,0-8.533,3.413-8.533,8.533
				s3.413,8.533,8.533,8.533H331.8z"/>
			<path d="M383,204.227c0-5.12-3.413-8.533-8.533-8.533h-128c-5.12,0-8.533,3.413-8.533,8.533c0,5.12,3.413,8.533,8.533,8.533h128
				C379.587,212.76,383,209.347,383,204.227z"/>
			<path d="M84.333,204.227c0,5.12,3.413,8.533,8.533,8.533h119.467c5.12,0,8.533-3.413,8.533-8.533c0-5.12-3.413-8.533-8.533-8.533
				H92.867C87.747,195.693,84.333,199.107,84.333,204.227z"/>
			<path d="M50.2,212.76h8.533c5.12,0,8.533-3.413,8.533-8.533c0-5.12-3.413-8.533-8.533-8.533H50.2
				c-5.12,0-8.533,3.413-8.533,8.533C41.667,209.347,45.08,212.76,50.2,212.76z"/>
			<path d="M50.2,246.893H127c5.12,0,8.533-3.413,8.533-8.533s-3.413-8.533-8.533-8.533H50.2c-5.12,0-8.533,3.413-8.533,8.533
				S45.08,246.893,50.2,246.893z"/>
			<path d="M161.133,229.827c-5.12,0-8.533,3.413-8.533,8.533s3.413,8.533,8.533,8.533H178.2c5.12,0,8.533-3.413,8.533-8.533
				s-3.413-8.533-8.533-8.533H161.133z"/>
			<path d="M340.333,238.36c0-5.12-3.413-8.533-8.533-8.533H212.333c-5.12,0-8.533,3.413-8.533,8.533s3.413,8.533,8.533,8.533H331.8
				C336.92,246.893,340.333,243.48,340.333,238.36z"/>
			<path d="M50.2,281.027h110.933c5.12,0,8.533-3.413,8.533-8.533c0-5.12-3.413-8.533-8.533-8.533H50.2
				c-5.12,0-8.533,3.413-8.533,8.533C41.667,277.613,45.08,281.027,50.2,281.027z"/>
			<path d="M280.6,263.96h-85.333c-5.12,0-8.533,3.413-8.533,8.533c0,5.12,3.413,8.533,8.533,8.533H280.6
				c5.12,0,8.533-3.413,8.533-8.533C289.133,267.373,285.72,263.96,280.6,263.96z"/>
			<path d="M280.6,298.093h-34.133c-5.12,0-8.533,3.413-8.533,8.533s3.413,8.533,8.533,8.533H280.6c5.12,0,8.533-3.413,8.533-8.533
				S285.72,298.093,280.6,298.093z"/>
			<path d="M220.867,306.627c0-5.12-3.413-8.533-8.533-8.533H92.867c-5.12,0-8.533,3.413-8.533,8.533s3.413,8.533,8.533,8.533
				h119.467C217.453,315.16,220.867,311.747,220.867,306.627z"/>
			<path d="M50.2,315.16h8.533c5.12,0,8.533-3.413,8.533-8.533s-3.413-8.533-8.533-8.533H50.2c-5.12,0-8.533,3.413-8.533,8.533
				S45.08,315.16,50.2,315.16z"/>
			<path d="M50.2,349.293H127c5.12,0,8.533-3.413,8.533-8.533c0-5.12-3.413-8.533-8.533-8.533H50.2c-5.12,0-8.533,3.413-8.533,8.533
				C41.667,345.88,45.08,349.293,50.2,349.293z"/>
			<path d="M178.2,349.293c5.12,0,8.533-3.413,8.533-8.533c0-5.12-3.413-8.533-8.533-8.533h-17.067c-5.12,0-8.533,3.413-8.533,8.533
				c0,5.12,3.413,8.533,8.533,8.533H178.2z"/>
			<path d="M272.067,332.227h-59.733c-5.12,0-8.533,3.413-8.533,8.533c0,5.12,3.413,8.533,8.533,8.533h59.733
				c5.12,0,8.533-3.413,8.533-8.533C280.6,335.64,277.187,332.227,272.067,332.227z"/>
			<path d="M50.2,383.427h110.933c5.12,0,8.533-3.413,8.533-8.533s-3.413-8.533-8.533-8.533H50.2c-5.12,0-8.533,3.413-8.533,8.533
				S45.08,383.427,50.2,383.427z"/>
			<path d="M246.467,374.893c0-5.12-3.413-8.533-8.533-8.533h-42.667c-5.12,0-8.533,3.413-8.533,8.533s3.413,8.533,8.533,8.533
				h42.667C243.053,383.427,246.467,380.013,246.467,374.893z"/>
			<path d="M220.867,409.027c0-5.12-3.413-8.533-8.533-8.533H92.867c-5.12,0-8.533,3.413-8.533,8.533s3.413,8.533,8.533,8.533
				h119.467C217.453,417.56,220.867,414.147,220.867,409.027z"/>
			<path d="M50.2,417.56h8.533c5.12,0,8.533-3.413,8.533-8.533s-3.413-8.533-8.533-8.533H50.2c-5.12,0-8.533,3.413-8.533,8.533
				S45.08,417.56,50.2,417.56z"/>
			<path d="M50.2,451.693H127c5.12,0,8.533-3.413,8.533-8.533s-3.413-8.533-8.533-8.533H50.2c-5.12,0-8.533,3.413-8.533,8.533
				S45.08,451.693,50.2,451.693z"/>
			<path d="M161.133,434.627c-5.12,0-8.533,3.413-8.533,8.533s3.413,8.533,8.533,8.533H178.2c5.12,0,8.533-3.413,8.533-8.533
				s-3.413-8.533-8.533-8.533H161.133z"/>
			<path d="M212.333,451.693H229.4c5.12,0,8.533-3.413,8.533-8.533s-3.413-8.533-8.533-8.533h-17.067
				c-5.12,0-8.533,3.413-8.533,8.533S207.213,451.693,212.333,451.693z"/>
			<path d="M16.067,480.707V118.893h477.867v162.133H511V118.893v-17.067V24.173c0-13.653-11.093-24.747-23.893-24.747H23.747
				C10.093-0.573-1,10.52-1,24.173v77.653v17.067v361.813c0,17.067,13.653,30.72,30.72,30.72H255V494.36H29.72
				C22.04,494.36,16.067,488.387,16.067,480.707z M16.067,24.173c0-4.267,3.413-7.68,7.68-7.68h462.507
				c4.267,0,7.68,3.413,7.68,7.68v77.653H16.067V24.173z"/>
			<path d="M400.92,290.413c-32.427,0-63.147,12.8-83.627,36.693c-3.413,3.413-2.56,8.533,0.853,11.947
				c3.413,3.413,8.533,2.56,11.947-0.853c17.067-20.48,42.667-31.573,69.973-31.573c52.053,0,93.867,41.813,93.867,93.867
				c0,52.053-41.813,93.867-93.867,93.867c-42.463,0-79.831-28.994-91.449-68.267h40.249v-17.067h-50.179
				c-0.916-0.161-1.84-0.178-2.728,0H280.6v68.267h17.067v-30.611c17.872,38.071,57.864,64.744,102.4,64.744
				c61.44,0,111.787-48.64,111.787-110.08S462.36,290.413,400.92,290.413z"/>
		</g>
	</g>
</g>
</svg>